<svg width="65" height="25" viewBox="0 0 65 25" fill="none" xmlns="http://www.w3.org/2000/svg">
<path d="M1.49992 11.175L63.4999 11.175C64.2374 11.175 64.8333 11.7708 64.8333 12.5083C64.8333 13.2458 64.2374 13.8416 63.4999 13.8416L4.72075 13.8416L12.8124 21.9333C13.3333 22.4541 13.3333 23.3 12.8124 23.8208C12.2916 24.3416 11.4457 24.3416 10.9249 23.8208L0.554086 13.45C0.170754 13.0666 0.0582515 12.4958 0.266587 11.9958C0.474916 11.5 0.962419 11.175 1.49992 11.175Z" fill="white"/>
<path d="M11.8833 0.7916C12.2249 0.7916 12.5666 0.920768 12.825 1.18327C13.3458 1.7041 13.3458 2.54993 12.825 3.07077L2.44162 13.4541C1.92078 13.9749 1.07495 13.9749 0.554118 13.4541C0.0332852 12.9333 0.0332853 12.0874 0.554118 11.5666L10.9375 1.18327C11.2 0.920768 11.5416 0.7916 11.8833 0.7916Z" fill="white"/>
</svg>
