<svg width="90" height="90" viewBox="0 0 90 90" fill="none" xmlns="http://www.w3.org/2000/svg">
<g clip-path="url(#clip0_512_246)">
<path d="M22.2335 29.3046C22.2335 28.326 23.0267 27.5326 24.0055 27.5326C24.9843 27.5326 25.7776 28.3259 25.7776 29.3046C25.7776 30.2834 24.9843 31.0767 24.0055 31.0767C23.0267 31.0767 22.2335 30.2832 22.2335 29.3046ZM76.8707 52.9995L57.1145 51.2046L51.6226 66.611H61.3882C62.3666 66.611 63.1601 67.4044 63.1601 68.3828V73.6984H66.7038C67.6822 73.6984 68.4756 74.4918 68.4756 75.4703V86.4558H69.3616C70.34 86.4558 71.1334 87.2492 71.1334 88.2276C71.1334 89.2061 70.34 89.9995 69.3616 89.9995H21.5214C20.543 89.9995 19.7495 89.2061 19.7495 88.2276C19.7495 87.2492 20.543 86.4558 21.5214 86.4558H22.4073V75.4703C22.4073 74.4918 23.2007 73.6984 24.1792 73.6984H27.7229V68.3828C27.7229 67.4044 28.5163 66.611 29.4947 66.611H39.6459L32.8985 45.9032L12.2756 37.7952C11.1523 37.4667 10.5816 35.6148 11.9939 34.6378L16.2889 31.9853C16.2907 31.9853 16.2926 31.9853 16.2926 31.9833C18.2661 30.7678 20.1246 33.7853 18.1511 35.0008L16.8685 35.7928L34.9733 42.9106C35.4659 43.1055 35.8451 43.5057 36.0099 44.0109L43.3741 66.611H47.8611L54.2368 48.7203C54.5063 47.9655 55.2664 47.4782 56.0671 47.5509L73.6989 49.1527L63.718 32.6744C63.4381 32.2119 63.3869 31.6343 63.5781 31.1277L70.5647 12.7285L52.2665 17.8264C51.7208 17.977 51.113 17.8512 50.6738 17.4933L35.6962 5.30977L34.5374 24.0011C34.502 24.5752 34.1902 25.0979 33.7011 25.3993L31.72 26.6235C29.7109 27.8641 27.8487 24.8484 29.8578 23.6078L31.0573 22.8671L32.3722 1.65088C32.4782 0.343248 34.0729 -0.548351 35.2586 0.385773L52.1992 14.1655L72.9902 8.37509C74.5398 8.04233 75.6373 9.41393 75.1217 10.712L67.198 31.5774L78.5467 50.3184C79.3754 51.4587 78.3467 53.1048 76.8707 52.9995ZM33.3928 77.2421H25.951V86.4558H33.3928V77.2421ZM53.9464 77.2421H36.9365V86.4558H53.9464V77.2421ZM57.4901 77.2421V86.4558H64.9319V77.2421H57.4901ZM59.6163 70.1547H31.2666V73.6984H59.6163V70.1547Z" fill="#EA1826"/>
</g>
<defs>
<clipPath id="clip0_512_246">
<rect width="90" height="90" fill="white" transform="translate(0 -0.000488281)"/>
</clipPath>
</defs>
</svg>
