<svg width="200" height="200" viewBox="0 0 200 200" fill="none" xmlns="http://www.w3.org/2000/svg">

  <style>
      @keyframes pulse {
        0% {
          -webkit-transform: scale(1);
          transform: scale(1);
        }
        70% {
          -webkit-transform: scale(3);
          transform: scale(3);
        }
        100% {
          -webkit-transform: scale(1);
          transform: scale(1);
        }
      } 

      @keyframes rotate {  
        from { 
          -webkit-transform: rotate(360deg);
          transform: rotate(360deg); 
        } 

        to { 
          -webkit-transform: rotate(0deg);
          transform: rotate(0deg);
        }  
      } 

    @-webkit-keyframes floating-up {
      from { -webkit-transform: translate(0,  0px); transform: translate(0,  0px); }
      65%  { -webkit-transform: translate(0, -5px); transform: translate(0, -5px); }
      to   { -webkit-transform: translate(0, 0px); transform: translate(0, 0px); }    
    }

    @-webkit-keyframes floating-down {
      from { -webkit-transform: translate(0,  0px); transform: translate(0,  0px); }
      65%  { -webkit-transform: translate(0, 5px); transform: translate(0, 5px); }
      to   { -webkit-transform: translate(0, 0px); transform: translate(0, 0px); }    
    }

    @-webkit-keyframes floating-down-12 {
      from { -webkit-transform: translate(0,  0px); transform: translate(0,  0px); }
      65%  { -webkit-transform: translate(0, 13px); transform: translate(0, 13px); }
      to   { -webkit-transform: translate(0, 0px); transform: translate(0, 0px); }    
    }

    #grid-1, #grid-2, #grid-5, #grid-6, #grid-9, #grid-10 {
      animation: 2s ease-in-out 0s infinite running floating-up;
    }

    #grid-3, #grid-4, #grid-7, #grid-8, #grid-11, #grid-12 {
      animation: 2s ease-in-out 0s infinite running floating-down; 
    }

    #grid-13, #grid-14 {
      animation: 2s ease-in-out 1s infinite running floating-down-12; 
    }
  </style>



    <path id="grid-1" d="M12.5 15.625C17.9062 15.625 20.5938 18.9375 24.5312 24.375C28.4688 29.8125 32.7812 35.6875 41.6562 35.6875C50.5312 35.6875 54.9062 29.6875 58.75 24.375C62.5937 19.0625 65.375 15.625 70.8125 15.625C76.25 15.625 78.9375 18.9375 82.875 24.375C86.8125 29.8125 91.0938 35.6875 99.9688 35.6875C108.844 35.6875 113.219 29.6875 117.094 24.375C120.969 19.0625 123.719 15.625 129.125 15.625C134.531 15.625 137.25 18.9375 141.219 24.375C145.188 29.8125 149.438 35.6875 158.312 35.6875C167.188 35.6875 171.594 29.6875 175.438 24.375C179.281 19.0625 182.062 15.625 187.5 15.625C188.329 15.625 189.124 15.2958 189.71 14.7097C190.296 14.1237 190.625 13.3288 190.625 12.5C190.625 11.6712 190.296 10.8763 189.71 10.2903C189.124 9.70424 188.329 9.375 187.5 9.375C178.625 9.375 174.25 15.375 170.375 20.6875C166.5 26 163.75 29.4375 158.312 29.4375C152.875 29.4375 150.188 26.125 146.25 20.6875C142.312 15.25 138.031 9.375 129.125 9.375C120.219 9.375 115.875 15.375 112.031 20.6875C108.187 26 105.406 29.4375 100 29.4375C94.5938 29.4375 91.9062 26.125 87.9688 20.6875C84.0312 15.25 79.6875 9.375 70.8125 9.375C61.9375 9.375 57.5625 15.375 53.7188 20.6875C49.875 26 47.0625 29.4375 41.6562 29.4375C36.25 29.4375 33.5312 26.125 29.5938 20.6875C25.6562 15.25 21.375 9.375 12.5 9.375C11.6712 9.375 10.8763 9.70424 10.2903 10.2903C9.70424 10.8763 9.375 11.6712 9.375 12.5C9.375 13.3288 9.70424 14.1237 10.2903 14.7097C10.8763 15.2958 11.6712 15.625 12.5 15.625Z" fill="#787878" fill-opacity="0.2"/>
    <path id="grid-2" d="M187.5 48.0938C178.625 48.0938 174.25 54.125 170.375 59.4375C166.5 64.75 163.75 68.1875 158.312 68.1875C152.875 68.1875 150.188 64.8438 146.25 59.4375C142.312 54.0313 138.031 48.0938 129.125 48.0938C120.219 48.0938 115.875 54.125 112.031 59.375C108.187 64.625 105.406 68.125 99.9688 68.125C94.5312 68.125 91.875 64.8438 87.9375 59.375C84 53.9063 79.6875 48.0312 70.8125 48.0312C61.9375 48.0312 57.5625 54.125 53.7188 59.375C49.875 64.625 47.0625 68.125 41.6562 68.125C36.25 68.125 33.5312 64.7812 29.5938 59.375C25.6562 53.9688 21.375 48.0938 12.5 48.0938C11.6712 48.0938 10.8763 48.423 10.2903 49.009C9.70424 49.5951 9.375 50.3899 9.375 51.2187C9.375 52.0476 9.70424 52.8424 10.2903 53.4285C10.8763 54.0145 11.6712 54.3437 12.5 54.3437C17.9062 54.3437 20.5938 57.6875 24.5312 63.0938C28.4688 68.5 32.7812 74.4375 41.6562 74.4375C50.5312 74.4375 54.9062 68.4063 58.75 63.0938C62.5937 57.7813 65.375 54.3437 70.8125 54.3437C76.25 54.3437 78.9375 57.6875 82.875 63.0938C86.8125 68.5 91.0938 74.4375 99.9688 74.4375C108.844 74.4375 113.219 68.4063 117.094 63.0938C120.969 57.7813 123.719 54.3437 129.125 54.3437C134.531 54.3437 137.25 57.6875 141.219 63.0938C145.188 68.5 149.438 74.4375 158.312 74.4375C167.188 74.4375 171.594 68.4063 175.438 63.0938C179.281 57.7813 182.062 54.3437 187.5 54.3437C188.329 54.3437 189.124 54.0145 189.71 53.4285C190.296 52.8424 190.625 52.0476 190.625 51.2187C190.625 50.3899 190.296 49.5951 189.71 49.009C189.124 48.423 188.329 48.0938 187.5 48.0938Z" fill="#787878" fill-opacity="0.2"/>
    <path id="grid-3" d="M187.5 86.8438C178.625 86.8438 174.25 92.8437 170.375 98.1562C166.5 103.469 163.75 106.906 158.312 106.906C152.875 106.906 150.188 103.594 146.25 98.1562C142.312 92.7187 138.031 86.8438 129.125 86.8438C120.219 86.8438 115.875 92.8437 112.031 98.1562C108.187 103.469 105.406 106.906 99.9688 106.906C94.5312 106.906 91.875 103.594 87.9375 98.1562C84 92.7187 79.6875 86.8438 70.8125 86.8438C61.9375 86.8438 57.5625 92.8437 53.7188 98.1562C49.875 103.469 47.0625 106.906 41.6562 106.906C36.25 106.906 33.5312 103.594 29.5938 98.1562C25.6562 92.7187 21.375 86.8438 12.5 86.8438C11.6712 86.8438 10.8763 87.173 10.2903 87.759C9.70424 88.3451 9.375 89.1399 9.375 89.9688C9.375 90.7976 9.70424 91.5924 10.2903 92.1785C10.8763 92.7645 11.6712 93.0938 12.5 93.0938C17.9062 93.0938 20.5938 96.4062 24.5312 101.844C28.4688 107.281 32.7812 113.156 41.6562 113.156C50.5312 113.156 54.9062 107.156 58.75 101.844C62.5937 96.5312 65.375 93.0938 70.8125 93.0938C76.25 93.0938 78.9375 96.4062 82.875 101.844C86.8125 107.281 91.0938 113.156 99.9688 113.156C108.844 113.156 113.219 107.156 117.094 101.844C120.969 96.5312 123.719 93.0938 129.125 93.0938C134.531 93.0938 137.25 96.4062 141.219 101.844C145.188 107.281 149.438 113.156 158.312 113.156C167.188 113.156 171.594 107.156 175.438 101.844C179.281 96.5312 182.062 93.0938 187.5 93.0938C188.329 93.0938 189.124 92.7645 189.71 92.1785C190.296 91.5924 190.625 90.7976 190.625 89.9688C190.625 89.1399 190.296 88.3451 189.71 87.759C189.124 87.173 188.329 86.8438 187.5 86.8438Z" fill="#787878" fill-opacity="0.2"/>
    <path id="grid-4" d="M187.5 125.562C178.625 125.562 174.25 131.594 170.375 136.906C166.5 142.219 163.75 145.656 158.312 145.656C152.875 145.656 150.188 142.313 146.25 136.906C142.312 131.5 138.031 125.562 129.125 125.562C120.219 125.562 115.875 131.594 112.031 136.906C108.187 142.219 105.406 145.656 99.9688 145.656C94.5312 145.656 91.875 142.313 87.9375 136.906C84 131.5 79.6875 125.562 70.8125 125.562C61.9375 125.562 57.5625 131.594 53.7188 136.906C49.875 142.219 47.0625 145.656 41.6562 145.656C36.25 145.656 33.5312 142.313 29.5938 136.906C25.6562 131.5 21.375 125.562 12.5 125.562C11.6712 125.562 10.8763 125.892 10.2903 126.478C9.70424 127.064 9.375 127.859 9.375 128.688C9.375 129.516 9.70424 130.311 10.2903 130.897C10.8763 131.483 11.6712 131.812 12.5 131.812C17.9062 131.812 20.5938 135.156 24.5312 140.562C28.4688 145.969 32.7812 151.906 41.6562 151.906C50.5312 151.906 54.9062 145.875 58.75 140.625C62.5937 135.375 65.375 131.875 70.8125 131.875C76.25 131.875 78.9375 135.219 82.875 140.625C86.8125 146.031 91.0938 151.969 99.9688 151.969C108.844 151.969 113.219 145.938 117.094 140.625C120.969 135.312 123.719 131.875 129.125 131.875C134.531 131.875 137.25 135.219 141.219 140.625C145.188 146.031 149.438 151.969 158.312 151.969C167.188 151.969 171.594 145.938 175.438 140.625C179.281 135.312 182.062 131.875 187.5 131.875C188.329 131.875 189.124 131.546 189.71 130.96C190.296 130.374 190.625 129.579 190.625 128.75C190.625 127.921 190.296 127.126 189.71 126.54C189.124 125.954 188.329 125.625 187.5 125.625V125.562Z" fill="#787878" fill-opacity="0.2"/>
    <path id="grid-5" d="M187.5 164.312C178.625 164.312 174.25 170.312 170.375 175.625C166.5 180.937 163.75 184.375 158.312 184.375C152.875 184.375 150.188 181.062 146.25 175.625C142.312 170.187 138.031 164.312 129.125 164.312C120.219 164.312 115.875 170.312 112.031 175.625C108.187 180.937 105.406 184.375 100 184.375C94.5938 184.375 91.9062 181.062 87.9688 175.625C84.0312 170.187 79.7188 164.312 70.8438 164.312C61.9688 164.312 57.5938 170.312 53.75 175.625C49.9063 180.937 47.0625 184.375 41.6562 184.375C36.25 184.375 33.5312 181.062 29.5938 175.625C25.6562 170.187 21.375 164.312 12.5 164.312C11.6712 164.312 10.8763 164.642 10.2903 165.228C9.70424 165.814 9.375 166.609 9.375 167.438C9.375 168.266 9.70424 169.061 10.2903 169.647C10.8763 170.233 11.6712 170.562 12.5 170.562C17.9062 170.562 20.5938 173.875 24.5312 179.312C28.4688 184.75 32.7812 190.625 41.6562 190.625C50.5312 190.625 54.9062 184.625 58.75 179.312C62.5937 174 65.375 170.562 70.8125 170.562C76.25 170.562 78.9375 173.875 82.875 179.312C86.8125 184.75 91.0938 190.625 100 190.625C108.906 190.625 113.25 184.625 117.125 179.312C121 174 123.75 170.562 129.156 170.562C134.563 170.562 137.281 173.875 141.25 179.312C145.219 184.75 149.438 190.625 158.312 190.625C167.188 190.625 171.594 184.625 175.438 179.312C179.281 174 182.062 170.562 187.5 170.562C188.329 170.562 189.124 170.233 189.71 169.647C190.296 169.061 190.625 168.266 190.625 167.438C190.625 166.609 190.296 165.814 189.71 165.228C189.124 164.642 188.329 164.312 187.5 164.312Z" fill="#787878" fill-opacity="0.2"/>
</svg>
