<svg width="30" height="30" viewBox="0 0 30 30" fill="none" xmlns="http://www.w3.org/2000/svg">
<g clip-path="url(#clip0_131_41)">
<path d="M12.7126 16.7237C13.4239 17.4825 14.2008 18.1769 15.0344 18.7989C15.9359 19.469 16.8913 20.0635 17.8908 20.5762L17.9323 20.5469C18.0056 20.4883 18.0886 20.4126 18.1765 20.3272C18.2644 20.2417 18.323 20.1685 18.4011 20.0831L18.677 19.7242C18.7013 19.6867 18.7291 19.6515 18.76 19.6192C19.8122 18.2325 21.1233 16.565 23.2326 17.5415C23.2764 17.5597 23.3188 17.5809 23.3596 17.605C25.0686 18.6158 26.8215 19.5948 28.5451 20.586C28.588 20.6084 28.6289 20.6345 28.6672 20.6641C29.0941 20.954 29.4369 21.3515 29.6609 21.8165C29.8823 22.2954 29.9957 22.8171 29.9929 23.3448C29.9877 23.8496 29.9104 24.3511 29.7634 24.834C29.6086 25.3497 29.3956 25.846 29.1286 26.3135C28.7992 26.8962 28.3704 27.4167 27.8615 27.8516C27.3813 28.2612 26.8443 28.5992 26.2673 28.855H26.2551C25.7309 29.0916 25.1868 29.2811 24.6291 29.4214C24.0876 29.5595 23.5392 29.6687 22.9861 29.7486C22.14 29.8752 21.2821 29.9014 20.4299 29.8267C19.5874 29.7517 18.7552 29.588 17.947 29.3384C17.1181 29.0758 16.3109 28.7493 15.5324 28.3619C14.6828 27.9426 13.8549 27.4806 13.052 26.9776L12.8469 26.8506C12.0974 26.3843 11.2893 25.8741 10.4714 25.271C8.78463 23.992 7.2306 22.5468 5.83273 20.9571C4.47701 19.4247 3.29016 17.7508 2.29269 15.9644C1.40484 14.3898 0.747121 12.6962 0.339567 10.9351C-0.0268285 9.36914 -0.0931022 7.74792 0.144255 6.15727C0.288358 5.21473 0.586963 4.30242 1.02804 3.45708C1.43983 2.66938 2.00807 1.97404 2.69797 1.41362C3.38153 0.865628 4.17251 0.467226 5.01974 0.244185C5.91535 0.0154538 6.84407 -0.0547787 7.76388 0.0366655C8.00898 0.0524168 8.24598 0.130576 8.45236 0.263716C8.65503 0.394714 8.82265 0.573225 8.94064 0.783736L12.2268 6.3477C12.5162 6.72108 12.7053 7.16232 12.7761 7.62944C12.8346 8.09409 12.7653 8.5659 12.5759 8.99419C12.4194 9.3487 12.2049 9.67463 11.9411 9.95854C11.6802 10.2399 11.3924 10.495 11.0818 10.7203C10.9035 10.8741 10.6789 11.0376 10.4445 11.2085L10.4226 11.2256C10.1444 11.4166 9.88081 11.6279 9.634 11.858C9.53759 11.9359 9.46208 12.0366 9.41427 12.1509C9.41427 12.1778 9.43625 12.1509 9.46066 12.1924L9.54367 12.3218C9.81955 12.754 10.3518 13.5791 10.9597 14.4556C11.4946 15.2501 12.0802 16.0093 12.7126 16.7286V16.7237ZM14.0432 20.1172C13.135 19.4388 12.2871 18.6833 11.509 17.8589C10.8177 17.081 10.1799 16.2572 9.59982 15.3931C8.99435 14.5191 8.43771 13.6573 8.14963 13.1958L8.07882 13.0909C7.95639 12.9404 7.86507 12.767 7.81016 12.581C7.75526 12.3949 7.73787 12.1997 7.759 12.0069C7.82373 11.4918 8.0726 11.0174 8.45968 10.6714C8.76793 10.3792 9.09852 10.1114 9.44845 9.87065C9.64377 9.72905 9.82931 9.59233 9.99777 9.44829L10.049 9.40922C10.286 9.24346 10.5046 9.05275 10.7009 8.84038C10.8417 8.68988 10.9571 8.51756 11.0427 8.33012C11.1131 8.17762 11.141 8.00889 11.1233 7.84184C11.0868 7.65223 11.0028 7.47497 10.8791 7.3267C10.849 7.2923 10.8228 7.25463 10.801 7.2144L7.54904 1.67485C6.84388 1.61072 6.13294 1.6677 5.44699 1.84331C4.82275 2.00639 4.24025 2.30014 3.738 2.70512C3.22327 3.12514 2.79889 3.64503 2.49045 4.23344C2.13652 4.91731 1.89734 5.65466 1.78244 6.41606C1.57669 7.7979 1.63468 9.20621 1.95334 10.5665C2.33089 12.1741 2.93595 13.7196 3.75021 15.1563C4.68755 16.8338 5.80411 18.4047 7.08029 19.8414C8.40478 21.3464 9.87701 22.7148 11.4748 23.9258C12.2072 24.48 13.0031 24.9707 13.7356 25.4249L13.9431 25.5567C14.6947 26.0283 15.4696 26.4618 16.2649 26.8555C16.9656 27.2048 17.693 27.4978 18.4402 27.732C19.1366 27.9506 19.8544 28.0947 20.5813 28.1617C21.3057 28.2238 22.035 28.2009 22.7541 28.0933C23.2473 28.024 23.7363 27.9279 24.219 27.8052C24.682 27.6894 25.1339 27.5326 25.5691 27.3365H25.591C26.0251 27.1441 26.4295 26.8909 26.7922 26.5845C27.1546 26.2742 27.4602 25.9033 27.6955 25.4883C27.9001 25.131 28.0638 24.7518 28.1838 24.358C28.2846 24.0261 28.3389 23.6818 28.3449 23.335C28.3511 23.054 28.2935 22.7752 28.1765 22.5196C28.0778 22.3122 27.9252 22.1351 27.7346 22.0069C26.4138 21.0621 24.0944 19.9097 22.6076 19.0503L22.5368 19.0137C21.6213 18.606 20.7717 19.6851 20.0808 20.5957L20.0393 20.6543C19.9196 20.813 19.7951 20.9668 19.6975 21.0987C19.5998 21.2305 19.4533 21.3916 19.3557 21.4893C19.2242 21.6206 19.0847 21.7437 18.9382 21.858C18.7729 21.9828 18.5914 22.0846 18.3986 22.1607C18.2163 22.2324 18.0206 22.2641 17.8249 22.2535C17.6565 22.242 17.4913 22.2016 17.3366 22.1338L17.2585 22.0997C16.1326 21.5309 15.057 20.8677 14.0432 20.1172Z" fill="white"/>
</g>
<defs>
<clipPath id="clip0_131_41">
<rect width="30" height="29.8608" fill="white"/>
</clipPath>
</defs>
</svg>
