<svg width="25" height="30" viewBox="0 0 25 30" fill="none" xmlns="http://www.w3.org/2000/svg">
<path d="M21.4201 29.8168C18.3236 29.3241 15.415 28.1536 12.6942 26.3055C9.97337 24.4574 7.65929 22.2187 5.75193 19.5894C3.84456 16.9601 2.43473 14.0654 1.52245 10.9053C0.610165 7.74524 0.400397 4.61698 0.893145 1.52052C0.9619 1.08846 1.16322 0.751325 1.4971 0.50912C1.83098 0.266914 2.21395 0.18019 2.64601 0.248945L8.47887 1.17714C8.81492 1.23062 9.09777 1.38638 9.32744 1.64443C9.5571 1.90248 9.66919 2.20335 9.66372 2.54704L9.79771 7.73675C9.79224 8.08044 9.73754 8.38553 9.63361 8.65202C9.52967 8.91851 9.3525 9.14259 9.10209 9.32424L5.04807 12.297C5.7812 14.1857 6.78955 16.0074 8.07313 17.7622C9.35671 19.517 10.8228 21.0916 12.4713 22.486L16.3944 19.6401C16.6448 19.4585 16.9527 19.3413 17.3179 19.2887C17.6831 19.2361 18.03 19.2605 18.3584 19.362L23.1667 21.1608C23.4913 21.2863 23.7415 21.4923 23.9174 21.7787C24.0934 22.0651 24.1546 22.3763 24.1011 22.7124L23.1729 28.5452C23.1042 28.9773 22.9028 29.3144 22.569 29.5566C22.2351 29.7988 21.8521 29.8856 21.4201 29.8168ZM4.11532 9.34286L6.86983 7.34466L6.79632 3.86276L3.59185 3.35282C3.55526 4.35607 3.56858 5.35495 3.63182 6.34947C3.69506 7.34399 3.85623 8.34178 4.11532 9.34286ZM14.954 24.284C15.8252 24.841 16.7278 25.3169 17.6617 25.7116C18.5957 26.1063 19.549 26.418 20.5217 26.6466L21.0259 23.4782L17.7503 22.2555L14.954 24.284Z" fill="white"/>
</svg>
