<svg width="35" height="33" viewBox="0 0 35 33" fill="none" xmlns="http://www.w3.org/2000/svg">
<path d="M19.4042 0.119385C14.1321 0.119385 9.46591 2.7513 6.64149 6.76767C7.22602 7.14901 7.7958 7.67195 8.34688 8.34421C10.454 5.19358 13.8609 2.98309 17.8028 2.50791L19.404 5.21737L21.0051 2.50785C27.0644 3.2381 31.8808 8.05426 32.6114 14.1136L29.9015 15.7149L32.6115 17.3163C32.1231 21.3674 29.803 24.8551 26.5116 26.9455C26.7213 27.4234 26.8393 27.9121 26.8602 28.4159C26.8756 28.7841 26.8376 29.132 26.7613 29.4623C31.6607 26.8297 35 21.6558 35 15.7152C35 7.11544 28.004 0.119385 19.4042 0.119385ZM23.3841 25.8042C19.7888 22.9148 18.7835 24.3351 17.1522 25.9661C16.0134 27.1054 13.1314 24.7264 10.6429 22.2378C8.15421 19.7488 5.77564 16.8673 6.9144 15.7282C8.54578 14.0971 9.96569 13.0912 7.0755 9.49698C4.18628 5.90142 2.26025 8.66184 0.680049 10.2422C-1.1443 12.0659 0.583914 18.8621 7.30083 25.5801C14.0187 32.2971 20.8148 34.0241 22.6381 32.2011C24.2181 30.6207 26.9793 28.6949 23.3841 25.8042ZM12.4345 18.1559C12.4345 14.9601 16.1758 14.3908 16.1758 13.1437C16.1758 12.5386 15.6914 12.2846 15.2434 12.2846C14.4201 12.2846 13.9604 13.2044 13.9604 13.2044L12.3865 12.1512C12.3865 12.1512 13.1856 10.2868 15.4374 10.2868C16.8537 10.2868 18.3912 11.0981 18.3912 12.9381C18.3912 15.6379 14.9045 16.1587 14.8438 17.2725H18.5246V19.0883H12.5316C12.4709 18.7494 12.4345 18.4469 12.4345 18.1559ZM19.4096 15.7107L22.7514 10.4319H25.3422V15.2385H26.3711V16.9937H25.3422V19.0884H23.2474V16.9937H19.4097V15.7107H19.4096ZM23.2474 15.2384V13.3013C23.2474 12.8291 23.3201 12.3326 23.3201 12.3326H23.2959C23.2959 12.3326 23.1145 12.8654 22.8721 13.2287L21.5649 15.2143V15.2385L23.2474 15.2384Z" fill="#EA1826"/>
</svg>
