<svg width="80" height="80" viewBox="0 0 80 80" fill="none" xmlns="http://www.w3.org/2000/svg">
<g clip-path="url(#clip0_400_2040)">
<path d="M0.000379 38.3212C-0.00227785 39.3487 0.409134 40.334 1.14171 41.0546L2.93905 42.8639C4.45544 44.3784 6.91198 44.3784 8.42838 42.8639L28.1924 23.0945C29.1936 24.0356 30.7603 24.015 31.7364 23.0479L33.5364 24.7625C32.5233 25.7827 32.5233 27.4291 33.5364 28.4492L35.1364 30.0492C35.1817 30.0959 35.2364 30.1265 35.2844 30.1705L0.729712 65.0266C0.0144696 65.7562 -0.192411 66.8442 0.205082 67.7854C0.602575 68.7267 1.52662 69.3371 2.54838 69.3332H4.00038V77.3332C4.07243 78.8706 5.37185 80.0617 6.90971 79.9999H73.0897C74.6281 80.0624 75.9283 78.8712 76.0004 77.3332V69.3332H77.4537C78.4768 69.337 79.4018 68.7251 79.7984 67.782C80.195 66.8388 79.9854 65.7497 79.267 65.0212L43.067 28.4932L46.0257 25.5359C47.7833 23.7729 47.7833 20.9202 46.0257 19.1572L44.4257 17.5572C43.4286 16.5703 41.8228 16.5703 40.8257 17.5572L39.0257 15.8439C40.0387 14.8238 40.0387 13.1773 39.0257 12.1572L30.0297 3.17321C27.031 0.189215 24.1004 -0.565452 19.227 0.399881C17.159 0.827091 15.826 2.84634 16.2457 4.91588C16.6285 6.63669 18.1341 7.8756 19.8964 7.91988C20.1057 7.91988 20.3564 7.91188 20.6404 7.89321C21.9532 7.70795 23.2891 7.99782 24.407 8.71055L20.9337 12.1625C19.9309 13.1696 19.919 14.7943 20.907 15.8159L1.15105 35.5772C0.413538 36.2996 -0.00133283 37.2889 0.000379 38.3212ZM73.3537 77.2546C73.2789 77.3158 73.1835 77.3463 73.087 77.3399H6.91105C6.76038 77.3399 6.67771 77.2799 6.66838 77.3239V69.3332H73.3337L73.3537 77.2546ZM2.85905 66.6665L37.887 31.3212C38.0312 31.3423 38.1762 31.356 38.3217 31.3625C39.3516 31.3568 40.3482 30.9972 41.1444 30.3439L77.1417 66.6665H2.85905ZM27.323 9.57055C27.5734 9.32046 27.7141 8.98109 27.7141 8.62721C27.7141 8.27334 27.5734 7.93397 27.323 7.68388C25.5599 5.8201 23.0137 4.90879 20.4684 5.23055C20.2697 5.24255 20.0857 5.25321 19.9764 5.25321C19.6635 5.24524 19.3656 5.11731 19.1444 4.89588C18.9999 4.74208 18.8971 4.5539 18.8457 4.34921C18.7296 3.73498 19.128 3.14124 19.7404 3.01588C23.747 2.22521 25.791 2.72255 28.1404 5.06255L37.159 13.9372C36.6574 14.4228 36.3721 15.0895 36.367 15.7876C36.362 16.4857 36.6378 17.1565 37.1324 17.6492L38.9324 19.4492C39.4045 19.9364 40.054 20.2114 40.7324 20.2114C41.4108 20.2114 42.0602 19.9364 42.5324 19.4492L44.1324 21.0492C44.8512 21.77 44.8512 22.9365 44.1324 23.6572L39.627 28.1585C38.9058 28.8775 37.7389 28.8775 37.0177 28.1585L35.3977 26.6732C35.8981 26.1874 36.1825 25.521 36.187 24.8236C36.1915 24.1261 35.9158 23.4561 35.4217 22.9639L33.6217 21.1625C33.1363 20.6755 32.4773 20.4012 31.7897 20.3999C31.1189 20.3937 30.4765 20.6706 30.0204 21.1625L29.1577 20.3119C29.1457 20.2985 29.143 20.2825 29.131 20.2705L23.7337 14.8732C23.6603 14.8121 23.5797 14.7601 23.4937 14.7185L22.8164 14.0519L27.323 9.57055ZM3.03105 37.4665L22.7884 17.7039L26.3004 21.2146L6.54438 40.9785C6.06383 41.4347 5.31026 41.4347 4.82971 40.9785L3.02571 39.1652C2.79718 38.9432 2.66786 38.6385 2.66705 38.3199C2.66907 37.9981 2.80022 37.6907 3.03105 37.4665Z" fill="#EFEFEF"/>
<path d="M40.0004 40C33.3729 40 28.0004 45.3726 28.0004 52C28.0004 58.6274 33.3729 64 40.0004 64C46.6278 64 52.0004 58.6274 52.0004 52C51.993 45.3756 46.6247 40.0073 40.0004 40ZM40.0004 61.3333C34.8457 61.3333 30.667 57.1547 30.667 52C30.667 46.8453 34.8457 42.6667 40.0004 42.6667C45.155 42.6667 49.3337 46.8453 49.3337 52C49.3271 57.1519 45.1523 61.3267 40.0004 61.3333Z" fill="#EFEFEF"/>
<path d="M41.3337 51.2865V47.9998C41.3337 47.2635 40.7368 46.6665 40.0004 46.6665C39.264 46.6665 38.6671 47.2635 38.6671 47.9998V51.9998C38.667 52.4455 38.8896 52.8618 39.2604 53.1092L43.2604 55.7758C43.6567 56.0402 44.164 56.0731 44.5911 55.862C45.0182 55.651 45.3003 55.2281 45.3311 54.7527C45.3619 54.2773 45.1367 53.8215 44.7404 53.5572L41.3337 51.2865Z" fill="#EFEFEF"/>
</g>
<defs>
<clipPath id="clip0_400_2040">
<rect width="80" height="80" fill="white" transform="translate(0.000366211)"/>
</clipPath>
</defs>
</svg>
