<svg width="80" height="80" viewBox="0 0 80 80" fill="none" xmlns="http://www.w3.org/2000/svg">
<g clip-path="url(#clip0_400_2074)">
<path d="M58.372 9.26465H31.5908C30.8336 9.26465 30.2197 9.87855 30.2197 10.6357C30.2197 11.3929 30.8336 12.0068 31.5908 12.0068H58.372C59.1294 12.0068 59.7431 11.3929 59.7431 10.6357C59.7431 9.87855 59.1294 9.26465 58.372 9.26465Z" fill="#EFEFEF"/>
<path d="M79.867 29.9968L70.3848 10.0471C70.1578 9.56916 69.6758 9.26447 69.1467 9.26447H62.9422C62.1848 9.26447 61.5711 9.87838 61.5711 10.6356C61.5711 11.3928 62.1848 12.0067 62.9422 12.0067H68.2802L76.4589 29.2143H72.8137H7.18608H3.54077L11.7195 12.0067H13.8586V19.617C13.8586 20.3742 14.4725 20.9881 15.2297 20.9881H27.6606C28.4178 20.9881 29.0317 20.3742 29.0317 19.617V3.52979C29.0317 2.7726 28.4178 2.15869 27.6606 2.15869H15.2297C14.4725 2.15869 13.8586 2.7726 13.8586 3.52979V9.26447H10.8533C10.3241 9.26447 9.84218 9.569 9.61499 10.0471L0.132646 29.9968C-0.0692289 30.4217 -0.0392289 30.9201 0.212021 31.3178C0.463427 31.7154 0.900771 31.9565 1.37108 31.9565H5.81515V76.4699C5.81515 77.2271 6.42905 77.841 7.18624 77.841H72.8139C73.5712 77.841 74.185 77.2271 74.185 76.4699V31.9565H78.6291C79.0992 31.9565 79.5369 31.7154 79.7881 31.3178C80.0392 30.9201 80.0691 30.4217 79.867 29.9968ZM16.6006 4.90104H26.2894V18.2459H16.6006V4.90104ZM71.4428 75.099H66.3242V52.5223C66.3242 51.7651 65.7105 51.1512 64.9531 51.1512C64.1958 51.1512 63.582 51.7651 63.582 52.5223V75.099H49.6416V41.8281H63.582V47.9521C63.582 48.7093 64.1958 49.3232 64.9531 49.3232C65.7105 49.3232 66.3242 48.7093 66.3242 47.9521V40.457C66.3242 39.6998 65.7105 39.0859 64.9531 39.0859H48.2705C47.5131 39.0859 46.8994 39.6998 46.8994 40.457V75.0988H8.55718V31.9565H71.4428V75.099Z" fill="#EFEFEF"/>
<path d="M60.383 43.6562H52.8408C52.0834 43.6562 51.4697 44.2702 51.4697 45.0273V71.9C51.4697 72.6572 52.0834 73.2711 52.8408 73.2711H60.383C61.1403 73.2711 61.7541 72.6572 61.7541 71.9V45.0272C61.7541 44.27 61.1403 43.6562 60.383 43.6562ZM59.0119 70.5288H54.2117V66.6898H59.0119V70.5288ZM59.0119 63.9478H54.2117V59.8347H59.0119V63.9478ZM59.0119 57.0925H54.2117V52.9794H59.0119V57.0925ZM59.0119 50.2372H54.2117V46.3983H59.0119V50.2372Z" fill="#EFEFEF"/>
<path d="M39.6344 57.9152H38.9032V40.457C38.9032 39.6998 38.2892 39.0859 37.5321 39.0859H15.9608C15.2036 39.0859 14.5897 39.6998 14.5897 40.457V57.9152H13.8585C13.1013 57.9152 12.4874 58.5291 12.4874 59.2863V63.8564C12.4874 64.6136 13.1013 65.2275 13.8585 65.2275H16.1436C16.9008 65.2275 17.5147 64.6136 17.5147 63.8564C17.5147 63.0992 16.9008 62.4853 16.1436 62.4853H15.2296V60.6572H15.9608H38.2633V62.4853H19.7999C19.0427 62.4853 18.4288 63.0992 18.4288 63.8564C18.4288 64.6136 19.0427 65.2275 19.7999 65.2275H39.6344C40.3916 65.2275 41.0055 64.6136 41.0055 63.8564V59.2863C41.0055 58.5291 40.3917 57.9152 39.6344 57.9152ZM25.3755 57.9152H17.3321V51.2427H25.3755V57.9152ZM25.3755 48.5006H17.3321V41.8281H25.3755V48.5006ZM36.161 57.9152H28.1175V51.2427H36.161V57.9152ZM36.161 48.5006H28.1175V41.8281H36.161V48.5006Z" fill="#EFEFEF"/>
</g>
<defs>
<clipPath id="clip0_400_2074">
<rect width="80" height="80" fill="white"/>
</clipPath>
</defs>
</svg>
