<svg width="80" height="80" viewBox="0 0 80 80" fill="none" xmlns="http://www.w3.org/2000/svg">
<g clip-path="url(#clip0_403_2105)">
<path d="M79.1913 30.8348L45.0044 1.20621C44.3255 0.617926 43.3964 0.484332 42.5792 0.857301C42.138 1.05886 41.787 1.38183 41.5577 1.77793H38.4422C38.2127 1.38199 37.8619 1.05886 37.4206 0.857301C36.6034 0.484645 35.6742 0.617926 34.9955 1.20621L22.7366 11.8307C22.2475 12.2546 22.1945 12.9948 22.6184 13.4839C23.0423 13.9729 23.7825 14.0257 24.2716 13.602L36.4012 3.08933V6.91136C36.4012 7.14339 36.2988 7.35699 36.1316 7.50183C28.7573 13.8931 9.71344 30.3978 2.34375 36.7848V32.606L20.1398 17.1829C20.6289 16.759 20.6819 16.0189 20.258 15.5298C19.8341 15.0407 19.0939 14.9878 18.6048 15.4117L0.808594 30.835C0.294844 31.2804 0 31.9259 0 32.606V36.7848C0 37.7139 0.525 38.5309 1.37031 38.9168C2.21531 39.3028 3.17656 39.1646 3.87891 38.556L4.85359 37.7112V77.0073C4.85359 78.2996 5.905 79.351 7.19734 79.351H72.8028C74.0952 79.351 75.1466 78.2996 75.1466 77.0073V37.7112L76.1212 38.556C76.8256 39.1665 77.7878 39.3015 78.6298 38.9168C79.475 38.5309 80.0002 37.714 80.0002 36.7848V32.606C80 31.9259 79.7052 31.2804 79.1913 30.8348ZM38.7452 6.63136V4.12168H41.2548V6.63136H38.7452ZM37.6667 9.27293C37.7741 9.17996 37.8741 9.08043 37.9667 8.97527H42.0333C42.1258 9.08043 42.2259 9.17996 42.3333 9.27293L47.6856 13.9117H32.3144L37.6667 9.27293ZM63.7525 30.899C63.1052 30.899 62.5806 31.4235 62.5806 32.0709C62.5806 32.7182 63.1052 33.2428 63.7525 33.2428H65.5225V69.7271H43.5986V33.2428H58.2836C58.9309 33.2428 59.4555 32.7182 59.4555 32.0709C59.4555 31.4235 58.9309 30.899 58.2836 30.899H12.7137L15.6095 28.3893H64.3903L67.2862 30.899H63.7525ZM38.7452 69.7271V33.2428H41.2548V69.7271H38.7452ZM18.3139 26.0454L24.0098 21.1089H55.9902L61.6861 26.0454H18.3139ZM26.7142 18.7653L29.61 16.2556H50.3898L53.2858 18.7653H26.7142ZM10.0094 33.2428H12.1337V56.6456C12.1337 57.2929 12.6583 57.8175 13.3056 57.8175C13.953 57.8175 14.4775 57.2929 14.4775 56.6456V33.2428H36.4012V69.7271H14.4775V62.1143C14.4775 61.467 13.953 60.9425 13.3056 60.9425C12.6583 60.9425 12.1337 61.467 12.1337 62.1143V69.7271H7.19719V35.68L10.0094 33.2428ZM7.19719 72.0709H9.70687V77.0075H7.19719V72.0709ZM12.0508 72.0709H67.9492V77.0075H12.0508V72.0709ZM70.293 77.0075V72.0709H72.8027V77.0075H70.293ZM72.8028 69.7271H67.8662V33.2428H69.9906L72.8028 35.68V69.7271ZM77.6562 36.7848C67.4936 27.9773 53.9919 16.2756 43.8683 7.50183C43.7005 7.35636 43.5986 7.14246 43.5986 6.91136V3.08933L77.6562 32.606V36.7848Z" fill="#EFEFEF"/>
</g>
<defs>
<clipPath id="clip0_403_2105">
<rect width="80" height="80" fill="white"/>
</clipPath>
</defs>
</svg>
