<svg width="120" height="120" viewBox="0 0 120 120" fill="none" xmlns="http://www.w3.org/2000/svg">
<path d="M117.411 54.7304C117.909 54.59 118.422 54.4905 118.966 54.4905C119.306 54.4905 119.64 54.5236 119.959 54.5798C119.954 54.5134 119.949 54.4419 119.944 54.3756C119.604 54.4394 119.26 54.4777 118.907 54.4777C118.374 54.4777 117.866 54.3832 117.37 54.2479C114.907 53.5688 113.086 51.3374 113.086 48.6592C113.086 46.7699 113.995 45.1053 115.394 44.0432C116.079 43.5199 116.878 43.1497 117.753 42.9684C117.715 42.8663 117.695 42.7616 117.664 42.6595C116.183 42.2969 114.922 41.3829 114.123 40.1319C113.735 39.5166 113.446 38.8222 113.316 38.0767C113.252 37.732 113.206 37.3797 113.206 37.0146C113.206 35.8146 113.599 34.727 114.228 33.8079C113.431 32.174 112.573 30.5859 111.636 29.0413C111.051 29.677 110.332 30.1902 109.517 30.5144C109.747 30.8974 109.966 31.2906 110.189 31.6787C111.976 32.6718 113.211 34.5585 113.211 36.7491C113.211 37.0376 113.165 37.3159 113.127 37.5916C112.714 40.4076 110.314 42.5701 107.388 42.5701C104.176 42.5701 101.569 39.9634 101.569 36.7491C101.569 33.5347 104.176 30.9306 107.388 30.9306C104.176 30.9306 101.569 28.3239 101.569 25.1121C101.569 23.736 102.067 22.4901 102.866 21.4919C103.405 20.8153 104.092 20.2638 104.876 19.8783C103.668 18.5252 102.391 17.2308 101.066 15.9951C100.676 16.7738 100.104 17.4503 99.4171 17.9814C98.4342 18.7422 97.2163 19.212 95.8683 19.212C92.6565 19.212 90.0524 16.6053 90.0524 13.3909C90.0524 12.5867 90.2132 11.8182 90.5196 11.1187C90.8643 10.3119 91.3928 9.6098 92.0463 9.03791C90.5043 8.0703 88.9188 7.17416 87.2951 6.34186C86.3913 6.92907 85.3343 7.29416 84.1777 7.29416C83.7999 7.29416 83.4348 7.25076 83.0748 7.18182C82.2834 7.03119 81.5455 6.72482 80.9021 6.28824C79.6894 5.4636 78.8265 4.18706 78.5073 2.70882C78.4231 2.67818 78.3337 2.64755 78.2418 2.61946C78.1269 3.49772 77.8691 4.33258 77.407 5.04234C76.3679 6.63802 74.5781 7.69755 72.5331 7.69755C69.6175 7.69755 67.2329 5.55551 66.804 2.76754C66.7555 2.47394 66.7147 2.18289 66.7147 1.87652C66.7147 1.29441 66.8244 0.7455 66.9802 0.214459C66.8193 0.196587 66.661 0.171057 66.5002 0.155738C66.6278 0.625505 66.7095 1.10804 66.7095 1.61355C66.7095 1.99906 66.6636 2.37692 66.5947 2.73946C66.0662 5.41509 63.7199 7.43202 60.8936 7.43202C58.0061 7.43202 55.6266 5.32828 55.1696 2.57351C55.116 2.25948 55.07 1.9429 55.07 1.61355C55.07 1.04676 55.1798 0.51317 55.3305 0C55.1313 0.0153185 54.9322 0.0280839 54.733 0.0459555C54.9322 0.630611 55.0726 1.2459 55.0726 1.90205C55.0726 2.13693 55.0317 2.3616 55.0037 2.58883C54.659 5.47636 52.231 7.72308 49.2541 7.72308C47.0202 7.72308 45.1003 6.44909 44.1275 4.60066C43.7344 3.85771 43.4995 3.0203 43.4637 2.12672C43.4382 2.13438 43.4127 2.14204 43.3897 2.14714C43.285 3.28837 42.8612 4.33003 42.1923 5.18786C41.1302 6.55887 39.4835 7.45756 37.6146 7.45756C37.2597 7.45756 36.9176 7.4116 36.5832 7.35288C35.4624 7.15119 34.4743 6.60738 33.6752 5.86188C31.9902 6.68397 30.3434 7.5801 28.7477 8.55027C29.5596 8.98175 30.2541 9.59959 30.7826 10.3476C31.4515 11.2948 31.8549 12.4437 31.8549 13.6947C31.8549 16.9116 29.2482 19.5158 26.0313 19.5158C24.1471 19.5158 22.4901 18.6069 21.4281 17.218C20.8843 16.5082 20.4936 15.6759 20.3175 14.7645C20.1924 14.8743 20.0622 14.9789 19.9396 15.0913C19.3703 17.001 17.8614 18.4869 15.9364 19.0179C15.8113 19.1532 15.676 19.2834 15.5534 19.4187C16.4572 19.6307 17.2844 20.0417 17.9763 20.6187C19.2528 21.6884 20.0851 23.2765 20.0851 25.0738C20.0851 28.2882 17.481 30.8923 14.2667 30.8923C17.4835 30.8923 20.0902 33.499 20.0902 36.7108C20.0902 39.9277 17.4835 42.5318 14.2667 42.5318C11.0549 42.5318 8.44819 39.9251 8.44819 36.7108C8.44819 33.4964 11.0574 30.8923 14.2667 30.8923C13.0208 30.8923 11.8693 30.4915 10.9196 29.8226C10.1868 29.3043 9.5792 28.615 9.14518 27.8209C8.2082 29.2992 7.33504 30.8208 6.52827 32.3807C7.261 33.0548 7.83545 33.8947 8.14437 34.8675C8.32308 35.4291 8.44819 36.0138 8.44819 36.6342C8.44819 38.863 7.18186 40.7753 5.34108 41.7557C4.5292 42.1871 3.6152 42.4552 2.62716 42.4552C2.55822 42.4552 2.49184 42.4322 2.42291 42.4271C2.4178 42.4425 2.4178 42.4552 2.4127 42.468C2.44333 42.468 2.47142 42.4552 2.50206 42.4552C3.3701 42.4552 4.18709 42.6569 4.92493 42.999C6.924 43.9181 8.32053 45.9274 8.32053 48.2762C8.32053 51.4319 5.80319 53.99 2.66545 54.0769C2.61184 54.0794 2.55567 54.0947 2.50206 54.0947C1.65954 54.0947 0.875741 53.8854 0.153219 53.5611C0.112369 53.9543 0.0842856 54.35 0.0485424 54.7458C0.81702 54.3705 1.64933 54.1075 2.56078 54.1075C2.59652 54.1075 2.6246 54.1177 2.66035 54.1177C5.82617 54.1713 8.38436 56.7448 8.38436 59.9285C8.38436 63.1122 5.82106 65.6934 2.64503 65.7368C2.6195 65.7393 2.59141 65.747 2.56078 65.747C1.64422 65.747 0.804255 65.4815 0.0383301 65.1036C0.0689671 65.4866 0.0919448 65.8798 0.132794 66.2653C0.839998 65.9487 1.61358 65.747 2.44078 65.747C2.50971 65.747 2.57609 65.7674 2.65013 65.7674C5.76234 65.8823 8.25926 68.4252 8.25926 71.568C8.25926 73.9092 6.86783 75.9134 4.87387 76.835C4.13092 77.1797 3.31394 77.3839 2.44078 77.3839C2.41014 77.3839 2.38972 77.3737 2.36164 77.3737C2.36674 77.3891 2.37185 77.4044 2.37695 77.4197C2.46121 77.4146 2.5378 77.3839 2.62205 77.3839C3.58456 77.3839 4.47303 77.6418 5.2696 78.0529C7.14867 79.0179 8.44563 80.9506 8.44563 83.2075C8.44563 83.8688 8.31032 84.4892 8.10607 85.0789C7.78183 86.0363 7.20228 86.8584 6.46444 87.5171C7.27121 89.0771 8.13926 90.6038 9.07114 92.0846C9.51537 91.2931 10.1281 90.6191 10.866 90.1136C11.8004 89.4779 12.9263 89.1026 14.139 89.1026C17.3559 89.1026 19.9575 91.7093 19.9575 94.9262C19.9575 96.6904 19.1558 98.2579 17.9074 99.3251C17.2282 99.9098 16.4113 100.331 15.5126 100.553C15.6734 100.727 15.8419 100.895 16.0053 101.069C17.7363 101.638 19.0971 102.979 19.6843 104.702C19.8783 104.876 20.0826 105.044 20.2766 105.218C20.537 104.352 20.9685 103.568 21.5634 102.92C22.6255 101.758 24.142 101.02 25.8372 101.02C29.0541 101.02 31.6557 103.627 31.6557 106.839C31.6557 107.891 31.357 108.869 30.8668 109.716C30.4226 110.495 29.7843 111.143 29.0465 111.641C30.4277 112.471 31.8549 113.242 33.305 113.962C34.0531 113.222 34.9798 112.66 36.047 112.42C36.4657 112.323 36.9049 112.259 37.3542 112.259C39.3584 112.259 41.1302 113.273 42.177 114.82C42.7565 115.673 43.0757 116.696 43.1293 117.794C43.1701 117.807 43.2084 117.817 43.2493 117.827C43.3335 116.941 43.5786 116.107 44.0126 115.384C45.0237 113.679 46.8695 112.527 48.9937 112.527C51.8863 112.527 54.2684 114.641 54.7228 117.404C54.7739 117.712 54.8173 118.026 54.8173 118.346C54.8173 118.91 54.7126 119.441 54.562 119.951C54.7713 119.974 54.9807 119.987 55.1951 120.003C54.9705 119.395 54.8173 118.752 54.8173 118.062C54.8173 117.843 54.8581 117.633 54.8811 117.419C55.2054 114.506 57.6435 112.241 60.6358 112.241C63.5871 112.241 66.0023 114.447 66.3802 117.299C66.4108 117.552 66.4517 117.797 66.4517 118.062C66.4517 118.713 66.3113 119.318 66.1121 119.906C66.2985 119.885 66.4874 119.852 66.684 119.839C66.5462 119.357 66.4517 118.854 66.4517 118.328C66.4517 117.968 66.5002 117.621 66.5564 117.276C67.0542 114.564 69.4184 112.509 72.2702 112.509C74.2769 112.509 76.0462 113.523 77.098 115.073C77.578 115.775 77.8359 116.612 77.9686 117.485C78.0248 117.467 78.0835 117.444 78.1397 117.429C78.2444 116.25 78.6937 115.172 79.3958 114.294C80.463 112.966 82.0791 112.106 83.9173 112.106C84.1318 112.106 84.3284 112.147 84.5326 112.165C85.7096 112.295 86.7564 112.788 87.6142 113.5C89.1103 112.726 90.5707 111.894 91.9876 111C91.3187 110.444 90.7647 109.762 90.3996 108.958C90.0575 108.22 89.8584 107.411 89.8584 106.543C89.8584 103.326 92.465 100.724 95.6768 100.724C97.0836 100.724 98.355 101.243 99.3584 102.07C100.035 102.629 100.574 103.326 100.944 104.125C102.284 102.884 103.566 101.582 104.789 100.224C104 99.8485 103.308 99.3047 102.759 98.6282C101.945 97.6222 101.431 96.3636 101.431 94.9696C101.431 91.7527 104.038 89.1486 107.25 89.1486C108.034 89.1486 108.777 89.3094 109.458 89.5877C110.268 89.9221 110.98 90.4481 111.554 91.094C112.451 89.626 113.268 88.1069 114.031 86.5597C113.513 85.6917 113.194 84.6858 113.194 83.5956C113.194 80.92 115.009 78.6962 117.462 78.0095C117.503 77.8767 117.536 77.7439 117.577 77.6188C116.709 77.4197 115.913 77.0342 115.233 76.5006C113.888 75.4334 113.01 73.8045 113.01 71.9612C113.01 69.2805 114.83 67.0491 117.289 66.3725C117.781 66.2372 118.297 66.1376 118.833 66.1376C119.193 66.1376 119.541 66.181 119.88 66.2423C119.885 66.1836 119.89 66.1172 119.9 66.0559C119.592 66.1095 119.278 66.1376 118.953 66.1376C118.394 66.1376 117.861 66.0329 117.353 65.8849C114.919 65.1853 113.135 62.9692 113.135 60.314C113.148 57.6384 114.958 55.4121 117.411 54.7304ZM107.273 42.5727C110.485 42.5727 113.089 45.1794 113.089 48.3937C113.089 51.608 110.482 54.2122 107.273 54.2122C104.053 54.2122 101.449 51.6055 101.449 48.3937C101.444 45.1768 104.053 42.5727 107.273 42.5727ZM49.1852 89.2328C45.9734 89.2328 43.3667 86.6261 43.3667 83.4118C43.3667 80.1974 45.9734 77.5958 49.1852 77.5958C52.4021 77.5958 55.0088 80.2026 55.0088 83.4118C55.0062 86.6312 52.397 89.2328 49.1852 89.2328ZM54.8837 95.0513C54.8837 98.2682 52.277 100.87 49.0652 100.87C45.8483 100.87 43.2416 98.2631 43.2416 95.0513C43.2416 91.8344 45.8483 89.2328 49.0652 89.2328C52.277 89.2328 54.8837 91.8395 54.8837 95.0513ZM20.0213 60.0051C20.0213 63.222 17.4172 65.8261 14.2028 65.8261C10.9885 65.8261 8.38436 63.2194 8.38436 60.0051C8.38436 56.7908 10.9885 54.1866 14.2028 54.1866C17.4172 54.1866 20.0213 56.7908 20.0213 60.0051ZM19.96 48.6184C19.96 45.4015 22.5642 42.7973 25.7785 42.7973C28.9903 42.7973 31.597 45.404 31.597 48.6184C31.597 51.8327 28.9903 54.4368 25.7785 54.4368C22.5642 54.4368 19.96 51.8327 19.96 48.6184ZM25.8423 54.4496C29.0592 54.4496 31.6659 57.0563 31.6659 60.2655C31.6659 63.485 29.0592 66.0866 25.8423 66.0866C22.6306 66.0866 20.0239 63.4799 20.0239 60.2655C20.0213 57.0563 22.628 54.4496 25.8423 54.4496ZM43.3616 25.1964C43.3616 21.9795 45.9683 19.3753 49.1852 19.3753C52.397 19.3753 55.0037 21.982 55.0037 25.1964C55.0037 28.4107 52.397 31.0149 49.1852 31.0149C52.397 31.0149 55.0037 33.6215 55.0037 36.8333C55.0037 40.0502 52.397 42.6544 49.1852 42.6544C45.9683 42.6544 43.3616 40.0477 43.3616 36.8333C43.3616 33.619 45.9683 31.0149 49.1852 31.0149C45.9708 31.0149 43.3616 28.4107 43.3616 25.1964ZM55.0062 24.9104C55.0062 21.6935 57.6129 19.0894 60.8247 19.0894C64.039 19.0894 66.6432 21.6961 66.6432 24.9104C66.6432 28.1248 64.039 30.7289 60.8247 30.7289C64.039 30.7289 66.6483 33.3356 66.6483 36.5474C66.6483 39.7643 64.0416 42.3684 60.8247 42.3684C57.6129 42.3684 55.0062 39.7617 55.0062 36.5474C55.0062 33.333 57.6129 30.7289 60.8247 30.7289C57.6129 30.7289 55.0062 28.1248 55.0062 24.9104ZM78.2878 24.77C78.2878 21.5531 80.8945 18.949 84.1063 18.949C87.3231 18.949 89.9247 21.5557 89.9247 24.77C89.9247 27.9843 87.3206 30.5885 84.1063 30.5885C87.3231 30.5885 89.9298 33.1952 89.9298 36.407C89.9298 39.6238 87.3231 42.228 84.1063 42.228C80.8945 42.228 78.2878 39.6213 78.2878 36.407C78.2878 33.1926 80.8945 30.5885 84.1063 30.5885C80.8996 30.5885 78.2878 27.9843 78.2878 24.77ZM49.1239 65.9512C45.9121 65.9512 43.3054 63.3445 43.3054 60.1302C43.3054 56.9159 45.9121 54.3117 49.1239 54.3117C52.3408 54.3117 54.9475 56.9184 54.9475 60.1302C54.9449 63.3471 52.3382 65.9512 49.1239 65.9512ZM54.8249 71.7697C54.8249 74.9866 52.2182 77.5882 49.0065 77.5882C45.7896 77.5882 43.1829 74.9815 43.1829 71.7697C43.1829 68.5528 45.7896 65.9512 49.0065 65.9512C52.2157 65.9512 54.8249 68.5605 54.8249 71.7697ZM37.487 65.6883C34.2701 65.6883 31.6685 63.0816 31.6685 59.8698C31.6685 56.6555 34.2726 54.0513 37.487 54.0513C40.7013 54.0513 43.3054 56.658 43.3054 59.8698C43.3029 63.0816 40.6987 65.6883 37.487 65.6883ZM66.5283 48.4575C66.5283 45.2406 69.135 42.6365 72.3442 42.6365C75.5585 42.6365 78.1627 45.2432 78.1627 48.4575C78.1627 51.6718 75.556 54.276 72.3442 54.276C69.1273 54.276 66.5283 51.6693 66.5283 48.4575ZM66.5844 59.8417C66.5844 63.0611 63.9803 65.6627 60.766 65.6627C57.5516 65.6627 54.9475 63.056 54.9475 59.8417C54.9475 56.6299 57.5516 54.0258 60.766 54.0258C63.9829 54.0258 66.5844 56.6299 66.5844 59.8417ZM60.7047 54.0105C57.4878 54.0105 54.8811 51.4038 54.8811 48.192C54.8811 44.9751 57.4878 42.371 60.7047 42.371C63.9165 42.371 66.5232 44.9777 66.5232 48.192C66.5283 51.4063 63.9165 54.0105 60.7047 54.0105ZM60.6409 65.6653C63.8578 65.6653 66.4593 68.272 66.4593 71.4863C66.4593 74.7007 63.8552 77.3048 60.6409 77.3048C57.4291 77.3048 54.8224 74.6981 54.8224 71.4863C54.8249 68.2694 57.4316 65.6653 60.6409 65.6653ZM60.8272 77.3048C64.0416 77.3048 66.6457 79.9115 66.6457 83.1233C66.6457 86.3402 64.0416 88.9418 60.8272 88.9418C57.6129 88.9418 55.0088 86.3351 55.0088 83.1233C55.0062 79.9115 57.6078 77.3048 60.8272 77.3048ZM66.4593 71.7518C66.4593 68.535 69.066 65.9334 72.2829 65.9334C75.4947 65.9334 78.1014 68.5401 78.1014 71.7518C78.1014 74.9687 75.4947 77.5703 72.2829 77.5703C69.0712 77.5703 66.4593 74.9611 66.4593 71.7518ZM72.4029 65.9257C69.1911 65.9257 66.5844 63.319 66.5844 60.1072C66.5844 56.8955 69.1911 54.2888 72.4029 54.2888C75.6198 54.2888 78.2265 56.8955 78.2265 60.1072C78.2316 63.3241 75.6198 65.9257 72.4029 65.9257ZM83.9224 65.5249C87.1393 65.5249 89.7409 68.1316 89.7409 71.3459C89.7409 74.5602 87.1368 77.1644 83.9224 77.1644C80.7106 77.1644 78.104 74.5577 78.104 71.3459C78.104 68.1316 80.7106 65.5249 83.9224 65.5249ZM84.0475 65.5249C80.8306 65.5249 78.2316 62.9182 78.2316 59.7038C78.2316 56.4895 80.8383 53.8854 84.0475 53.8854C87.2644 53.8854 89.866 56.4921 89.866 59.7038C89.866 62.9207 87.267 65.5249 84.0475 65.5249ZM89.8073 48.3171C89.8073 45.1002 92.414 42.4961 95.6258 42.4961C98.8375 42.4961 101.444 45.1028 101.444 48.3171C101.444 51.5314 98.8375 54.1356 95.6258 54.1356C92.4089 54.1356 89.8073 51.5314 89.8073 48.3171ZM83.9863 53.8726C80.7694 53.8726 78.1627 51.2659 78.1627 48.0541C78.1627 44.8372 80.7694 42.2331 83.9863 42.2331C87.198 42.2331 89.8047 44.8398 89.8047 48.0541C89.8073 51.2659 87.198 53.8726 83.9863 53.8726ZM72.4693 30.9944C75.6836 30.9944 78.2878 33.6011 78.2878 36.8129C78.2878 40.0298 75.6811 42.6339 72.4693 42.6339C69.2524 42.6339 66.6483 40.0272 66.6483 36.8129C66.6483 33.5986 69.2524 30.9944 72.4693 30.9944C69.2524 30.9944 66.6483 28.3877 66.6483 25.176C66.6483 21.9591 69.255 19.3549 72.4693 19.3549C75.6836 19.3549 78.2878 21.9616 78.2878 25.176C78.2878 28.3877 75.6836 30.9944 72.4693 30.9944ZM49.0626 42.6569C52.2744 42.6569 54.8811 45.2636 54.8811 48.4779C54.8811 51.6923 52.2744 54.2964 49.0626 54.2964C45.8457 54.2964 43.2442 51.6897 43.2442 48.4779C43.2442 45.2636 45.8483 42.6569 49.0626 42.6569ZM37.4257 54.0334C34.2088 54.0334 31.6021 51.4268 31.6021 48.215C31.6021 44.9981 34.2088 42.3939 37.4257 42.3939C40.6375 42.3939 43.2442 45.0006 43.2442 48.215C43.2442 51.4293 40.6375 54.0334 37.4257 54.0334ZM25.7223 66.0917C28.9341 66.0917 31.5408 68.6984 31.5408 71.9127C31.5408 75.127 28.9341 77.7286 25.7223 77.7286C22.5055 77.7286 19.8988 75.1219 19.8988 71.9127C19.8962 68.6958 22.5029 66.0917 25.7223 66.0917ZM25.9036 77.7286C29.1205 77.7286 31.7272 80.3353 31.7272 83.5471C31.7272 86.764 29.1205 89.3681 25.9036 89.3681C22.6918 89.3681 20.0851 86.7614 20.0851 83.5471C20.0826 80.3379 22.6918 77.7286 25.9036 77.7286ZM31.5408 71.5093C31.5408 68.2924 34.1475 65.6883 37.3593 65.6883C40.5762 65.6883 43.1778 68.295 43.1778 71.5093C43.1778 74.7236 40.5736 77.3278 37.3593 77.3278C34.1475 77.3278 31.5408 74.7236 31.5408 71.5093ZM37.5457 77.3278C40.7626 77.3278 43.3642 79.9345 43.3642 83.1437C43.3642 86.3631 40.76 88.9647 37.5457 88.9647C34.3313 88.9647 31.7272 86.358 31.7272 83.1437C31.7246 79.9345 34.3262 77.3278 37.5457 77.3278ZM60.6996 88.9469C63.9165 88.9469 66.5181 91.5536 66.5181 94.7679C66.5181 97.9822 63.9139 100.586 60.6996 100.586C57.4878 100.586 54.8811 97.9797 54.8811 94.7679C54.8837 91.551 57.4929 88.9469 60.6996 88.9469ZM72.3442 89.2073C75.5585 89.2073 78.1627 91.814 78.1627 95.0283C78.1627 98.2426 75.556 100.847 72.3442 100.847C69.1273 100.847 66.5232 98.2401 66.5232 95.0283C66.5232 91.8165 69.1273 89.2073 72.3442 89.2073ZM72.4642 89.2073C69.2524 89.2073 66.6483 86.6006 66.6483 83.3888C66.6483 80.1719 69.255 77.5703 72.4642 77.5703C75.6836 77.5703 78.2878 80.177 78.2878 83.3888C78.2878 86.6057 75.6836 89.2073 72.4642 89.2073ZM83.9863 88.8064C87.2031 88.8064 89.8022 91.4131 89.8022 94.6275C89.8022 97.8392 87.198 100.443 83.9863 100.443C80.7745 100.443 78.1703 97.8367 78.1703 94.6275C78.1627 91.4131 80.7745 88.8064 83.9863 88.8064ZM84.1063 88.8064C80.8894 88.8064 78.2878 86.1997 78.2878 82.9854C78.2878 79.7711 80.8945 77.1669 84.1063 77.1669C87.3231 77.1669 89.9247 79.7736 89.9247 82.9854C89.9298 86.2023 87.3231 88.8064 84.1063 88.8064ZM89.7409 71.6114C89.7409 68.3945 92.3476 65.7929 95.5645 65.7929C98.7763 65.7929 101.383 68.3996 101.383 71.6114C101.383 74.8283 98.7763 77.4299 95.5645 77.4299C92.3502 77.4299 89.7409 74.8283 89.7409 71.6114ZM95.687 65.7929C92.4753 65.7929 89.8711 63.1862 89.8711 59.9694C89.8711 56.7576 92.4778 54.1534 95.687 54.1534C98.9039 54.1534 101.508 56.7601 101.508 59.9694C101.511 63.1837 98.9014 65.7929 95.687 65.7929ZM95.7509 19.212C98.9652 19.212 101.569 21.8186 101.569 25.033C101.569 28.2473 98.9626 30.8515 95.7509 30.8515C98.9652 30.8515 101.569 33.4582 101.569 36.6699C101.569 39.8868 98.9626 42.491 95.7509 42.491C92.534 42.491 89.9298 39.8843 89.9298 36.6699C89.9298 33.4556 92.5365 30.8515 95.7509 30.8515C92.534 30.8515 89.9298 28.2448 89.9298 25.033C89.9298 21.8186 92.534 19.212 95.7509 19.212ZM83.5037 7.38352C83.7514 7.35033 83.9837 7.30948 84.2314 7.30948C86.4551 7.30948 88.3699 8.57325 89.3477 10.4089C89.7818 11.2234 90.0498 12.1425 90.0498 13.128C90.0498 16.3448 87.4457 18.949 84.2314 18.949C81.017 18.949 78.4129 16.3423 78.4129 13.128C78.4129 10.1638 80.6366 7.74095 83.5037 7.38352ZM72.5919 7.71286C75.8087 7.71286 78.4129 10.3196 78.4129 13.5313C78.4129 16.7482 75.8062 19.3524 72.5919 19.3524C69.3775 19.3524 66.7734 16.7457 66.7734 13.5313C66.7683 10.317 69.3775 7.71286 72.5919 7.71286ZM60.9523 7.44734C64.1667 7.44734 66.7708 10.054 66.7708 13.2658C66.7708 16.4827 64.1667 19.0868 60.9523 19.0868C57.738 19.0868 55.1339 16.4802 55.1339 13.2658C55.1339 10.054 57.7329 7.44734 60.9523 7.44734ZM49.3077 7.73329C52.5246 7.73329 55.1313 10.34 55.1313 13.5518C55.1313 16.7686 52.5246 19.3728 49.3077 19.3728C46.096 19.3728 43.4893 16.7661 43.4893 13.5518C43.4893 10.34 46.0985 7.73329 49.3077 7.73329ZM37.6682 7.47032C40.8851 7.47032 43.4867 10.077 43.4867 13.2888C43.4867 16.5057 40.8826 19.1098 37.6682 19.1098C34.4539 19.1098 31.8497 16.5031 31.8497 13.2888C31.8523 10.0745 34.4539 7.47032 37.6682 7.47032ZM37.5457 19.1098C40.7626 19.1098 43.3642 21.7165 43.3642 24.9309C43.3642 28.1452 40.76 30.7493 37.5457 30.7493C40.7626 30.7493 43.3693 33.356 43.3693 36.5678C43.3693 39.7847 40.7626 42.3888 37.5457 42.3888C34.3339 42.3888 31.7272 39.7821 31.7272 36.5678C31.7272 33.3535 34.3339 30.7493 37.5457 30.7493C34.3339 30.7493 31.7272 28.1426 31.7272 24.9309C31.7246 21.7165 34.3313 19.1098 37.5457 19.1098ZM25.9036 31.1553C22.6867 31.1553 20.08 28.5486 20.08 25.3368C20.08 22.1199 22.6867 19.5158 25.9036 19.5158C29.1154 19.5158 31.7221 22.1225 31.7221 25.3368C31.7246 28.5511 29.1154 31.1553 25.9036 31.1553C29.1154 31.1553 31.7221 33.762 31.7221 36.9737C31.7221 40.1906 29.1154 42.7948 25.9036 42.7948C22.6867 42.7948 20.08 40.1881 20.08 36.9737C20.0826 33.762 22.6918 31.1553 25.9036 31.1553ZM8.31798 48.3554C8.31798 45.1385 10.9247 42.5344 14.1416 42.5344C17.3533 42.5344 19.96 45.1411 19.96 48.3554C19.96 51.5697 17.3533 54.1739 14.1416 54.1739C10.9247 54.1739 8.31798 51.5672 8.31798 48.3554ZM8.2567 71.6497C8.2567 68.4303 10.8634 65.8287 14.0752 65.8287C17.2921 65.8287 19.8937 68.4354 19.8937 71.6497C19.8937 74.8615 17.2895 77.4656 14.0752 77.4656C10.866 77.4682 8.2567 74.8615 8.2567 71.6497ZM14.2616 89.1077C11.0447 89.1077 8.44308 86.501 8.44308 83.2867C8.44308 80.0723 11.0472 77.4682 14.2616 77.4682C17.4759 77.4682 20.08 80.0749 20.08 83.2867C20.0826 86.5036 17.481 89.1077 14.2616 89.1077ZM25.7836 101.01C22.5667 101.01 19.96 98.4035 19.96 95.1943C19.96 91.9748 22.5667 89.3732 25.7836 89.3732C28.9954 89.3732 31.6021 91.9799 31.6021 95.1943C31.6021 98.4086 28.9903 101.01 25.7836 101.01ZM31.5995 94.7909C31.5995 91.574 34.2062 88.9698 37.418 88.9698C40.6349 88.9698 43.2365 91.5765 43.2365 94.7909C43.2365 98.0052 40.6324 100.609 37.418 100.609C34.2062 100.609 31.5995 98.0052 31.5995 94.7909ZM37.487 112.264C34.2701 112.264 31.6685 109.657 31.6685 106.443C31.6685 103.231 34.2726 100.627 37.487 100.627C40.6987 100.627 43.3054 103.234 43.3054 106.443C43.3029 109.657 40.6936 112.264 37.487 112.264ZM49.1239 112.527C45.907 112.527 43.3054 109.92 43.3054 106.706C43.3054 103.492 45.9096 100.888 49.1239 100.888C52.3382 100.888 54.9424 103.494 54.9424 106.706C54.9449 109.923 52.3382 112.527 49.1239 112.527ZM60.766 112.241C57.5491 112.241 54.9475 109.634 54.9475 106.423C54.9475 103.206 57.5516 100.604 60.766 100.604C63.9777 100.604 66.5844 103.211 66.5844 106.423C66.5844 109.632 63.9803 112.241 60.766 112.241ZM72.4029 112.504C69.186 112.504 66.5844 109.897 66.5844 106.683C66.5844 103.469 69.1911 100.865 72.4029 100.865C75.6198 100.865 78.2214 103.471 78.2214 106.683C78.2265 109.9 75.6198 112.504 72.4029 112.504ZM88.3342 110.194C87.198 110.837 86.0466 111.452 84.8722 112.019C84.6041 112.057 84.3309 112.101 84.0552 112.101C80.8383 112.101 78.2367 109.494 78.2367 106.28C78.2367 103.065 80.8409 100.464 84.0552 100.464C87.267 100.464 89.8737 103.071 89.8737 106.28C89.866 107.794 89.2737 109.16 88.3342 110.194ZM95.6258 100.711C92.4089 100.711 89.8022 98.1048 89.8022 94.893C89.8022 91.6761 92.4089 89.072 95.6258 89.072C98.8375 89.072 101.444 91.6786 101.444 94.893C101.444 98.1073 98.8375 100.711 95.6258 100.711ZM95.7458 89.072C92.534 89.072 89.9298 86.4653 89.9298 83.2509C89.9298 80.0392 92.5365 77.435 95.7458 77.435C98.9652 77.435 101.569 80.0417 101.569 83.2509C101.569 86.4653 98.9652 89.072 95.7458 89.072ZM113.122 82.4339C113.171 82.725 113.209 83.0186 113.209 83.3275C113.209 85.5436 111.96 87.4456 110.14 88.4286C109.323 88.8754 108.391 89.1486 107.393 89.1486C104.176 89.1486 101.577 86.5419 101.577 83.3275C101.577 80.1132 104.181 77.5116 107.393 77.5116C110.296 77.5039 112.693 79.6434 113.122 82.4339ZM107.204 77.5039C103.992 77.5039 101.386 74.8972 101.386 71.688C101.386 68.4686 103.992 65.867 107.204 65.867C110.421 65.867 113.022 68.4737 113.022 71.688C113.028 74.9024 110.421 77.5039 107.204 77.5039ZM107.329 65.867C104.112 65.867 101.511 63.2603 101.511 60.0485C101.511 56.8316 104.117 54.2275 107.329 54.2275C110.546 54.2275 113.148 56.8342 113.148 60.0485C113.148 63.2577 110.546 65.867 107.329 65.867Z" fill="#102039" fill-opacity="0.2"/>
</svg>
