<svg width="120" height="120" viewBox="0 0 120 120" fill="none" xmlns="http://www.w3.org/2000/svg">


    <g clip-path="url(#clip0_506_209)">
        <path id="path-1" d="M93.7055 98.3501L76.6511 115.405C75.9552 116.1 75.0298 116.484 74.0459 116.484C73.0619 116.484 72.1365 116.1 71.4406 115.405C70.7447 114.709 70.3615 113.784 70.3615 112.799C70.3615 111.815 70.7447 110.89 71.4406 110.194L72.6698 108.965C75.8181 105.817 75.8181 100.694 72.6698 97.5457C69.5212 94.3972 64.3986 94.3972 61.2505 97.5457L58.9718 99.8242C56.6504 102.146 53.564 103.424 50.2811 103.424C46.9983 103.424 43.9118 102.145 41.5905 99.8242C39.2691 97.5028 37.9907 94.4164 37.9907 91.1333C37.9907 87.8504 39.2693 84.764 41.5905 82.4426L46.8309 77.2021C47.5175 76.5156 47.5175 75.4025 46.8309 74.7162C46.1444 74.0297 45.0313 74.0297 44.345 74.7162L39.1045 79.9567C32.9417 86.1195 32.9417 96.1474 39.1045 102.31C42.0899 105.296 46.0593 106.94 50.2814 106.94C54.5034 106.94 58.4728 105.296 61.4582 102.31L63.7369 100.032C65.5146 98.2545 68.4067 98.2545 70.1841 100.032C71.9614 101.809 71.9614 104.701 70.1841 106.479L68.9549 107.708C67.595 109.068 66.8459 110.876 66.8459 112.799C66.8459 114.722 67.5948 116.531 68.9549 117.89C70.3148 119.25 72.1229 120 74.0461 120C75.9695 120 77.7776 119.251 79.1375 117.89L96.1919 100.836C96.8784 100.15 96.8784 99.0364 96.1919 98.3501C95.5051 97.6636 94.392 97.6636 93.7055 98.3501Z" fill="#D5D5D5" fill-opacity="0.3"/>
        <path id="path-2" d="M23.2174 66.7721L2.76062 87.2288C0.260863 89.7286 0.260863 93.796 2.76062 96.2957C4.01062 97.5457 5.65228 98.1706 7.29394 98.1706C8.93561 98.1706 10.5775 97.5457 11.8273 96.2957L32.284 75.8389C34.7838 73.3392 34.7838 69.2718 32.284 66.7721C29.7843 64.2723 25.7172 64.2723 23.2174 66.7721ZM29.7981 73.3528L9.34133 93.8096C8.21252 94.9384 6.37561 94.9384 5.24656 93.8096C4.1175 92.6807 4.11774 90.8438 5.24656 89.7148L25.7033 69.258C26.2677 68.6936 27.0094 68.4114 27.7507 68.4114C28.4921 68.4114 29.2337 68.6936 29.7981 69.258C30.9269 70.387 30.9269 72.2239 29.7981 73.3528Z" fill="#D5D5D5" fill-opacity="0.3"/>
        <path id="path-3" d="M119.114 25.2106C119.114 16.4311 111.971 9.28835 103.192 9.28835C94.4124 9.28835 87.2699 16.4311 87.2699 25.2106C87.2699 27.3523 87.6974 29.395 88.4676 31.2619C87.3824 31.913 86.3581 32.7034 85.4236 33.6379L78.4751 40.5863C76.6385 42.423 73.6498 42.423 71.8129 40.5863C69.9762 38.7494 69.9762 35.7607 71.8129 33.9238L78.7613 26.9754C81.7467 23.9899 83.391 20.0208 83.391 15.7985C83.391 11.5765 81.7467 7.60708 78.7613 4.62166C72.5985 -1.54137 62.5704 -1.54137 56.4076 4.62166L29.0427 31.9866C22.8799 38.1494 22.8799 48.1773 29.0427 54.3403C35.9415 61.2402 46.6582 59.9968 52.4486 53.2879C54.2855 51.4515 57.2739 51.4512 59.1108 53.2879C60.0006 54.1776 60.4907 55.3608 60.4907 56.619C60.4907 57.8772 60.0008 59.0604 59.1108 59.9502L50.1525 68.9085C49.466 69.595 49.466 70.7082 50.1525 71.3945C50.839 72.081 51.9521 72.081 52.6384 71.3945L61.5968 62.4361C63.1505 60.8823 64.0063 58.8164 64.0063 56.619C64.0063 54.4216 63.1505 52.3557 61.5968 50.8017C58.3894 47.5943 53.1702 47.5941 49.9624 50.8017C45.0587 56.653 36.5537 56.8916 31.5286 51.8541C26.7365 47.062 26.7365 39.2649 31.5286 34.4725L58.8936 7.10759C61.215 4.7862 64.3014 3.50784 67.5845 3.50784C70.8673 3.50784 73.9538 4.78644 76.2752 7.10759C78.5965 9.42898 79.8749 12.5154 79.8749 15.7983C79.8749 19.0811 78.5963 22.1676 76.2752 24.489L69.3267 31.4374C66.1191 34.645 66.1191 39.8644 69.3267 43.072C72.5343 46.2797 77.7535 46.2799 80.9611 43.072L87.9095 36.1236C88.5975 35.4356 89.3538 34.8419 90.1613 34.3434C93.7936 39.725 101.441 42.6164 108.062 40.3681C108.604 41.7674 108.891 43.2685 108.891 44.8143C108.891 48.0971 107.612 51.1835 105.291 53.5049L80.1684 78.6282C78.6432 80.1531 77.8034 82.181 77.8034 84.3377C77.8034 86.4943 78.6432 88.5222 80.1684 90.0471C81.6933 91.5723 83.7212 92.4121 85.8779 92.4121C88.0345 92.4121 90.0624 91.5723 91.5873 90.0471L96.7308 84.9039C97.4267 84.208 98.352 83.8248 99.336 83.8248C100.32 83.8248 101.245 84.208 101.941 84.9039C103.378 86.3405 103.378 88.6778 101.941 90.1142L99.5294 92.5263C98.8429 93.2128 98.8429 94.3259 99.5294 95.0122C99.8725 95.3556 100.323 95.5272 100.772 95.5272C101.222 95.5272 101.672 95.3556 102.015 95.0122L104.427 92.6001C107.234 89.7928 107.234 85.2251 104.427 82.4178C103.067 81.0579 101.259 80.3087 99.3358 80.3087C97.4126 80.3087 95.6045 81.0576 94.2444 82.4178L89.1009 87.561C88.2398 88.4221 87.095 88.8963 85.8774 88.8963C84.6597 88.8963 83.515 88.4221 82.6538 87.561C81.7929 86.6998 81.3187 85.5551 81.3187 84.3374C81.3187 83.1198 81.7929 81.9748 82.6538 81.1139L107.777 55.9909C110.762 53.0055 112.406 49.0363 112.406 44.814C112.406 42.7617 112.015 40.7701 111.273 38.9212C115.961 36.1477 119.114 31.0418 119.114 25.2106ZM103.192 37.6171C99.2641 37.6171 95.7592 35.7802 93.4845 32.9228C97.9648 31.7367 103.267 33.298 106.269 37.2304C105.285 37.4823 104.254 37.6171 103.192 37.6171ZM109.604 35.828C105.872 30.1553 97.8987 27.6056 91.6706 29.8033C91.1019 28.3817 90.7857 26.8329 90.7857 25.2106C90.7857 18.3698 96.3511 12.8042 103.192 12.8042C110.033 12.8042 115.598 18.3698 115.598 25.2106C115.598 29.7069 113.194 33.6517 109.604 35.828Z" fill="#D5D5D5" fill-opacity="0.3"/>
        <path id="path-4" d="M14.6325 23.5917C18.5758 23.5917 21.7841 20.3834 21.7841 16.44C21.7841 12.4967 18.5758 9.28835 14.6325 9.28835C10.6891 9.28835 7.48077 12.4967 7.48077 16.44C7.48077 20.3834 10.6891 23.5917 14.6325 23.5917ZM14.6325 12.8042C16.6372 12.8042 18.2683 14.4351 18.2683 16.44C18.2683 18.445 16.6374 20.0759 14.6325 20.0759C12.6275 20.0759 10.9966 18.445 10.9966 16.44C10.9966 14.4351 12.6277 12.8042 14.6325 12.8042Z" fill="#D5D5D5" fill-opacity="0.3"/>
    </g>
    <defs>
        <clipPath id="clip0_506_209">
            <rect width="120" height="120" fill="white" transform="translate(0 -0.000488281)"/>
        </clipPath>
    </defs>
</svg>
