<svg width="229" height="276" viewBox="0 0 229 276" fill="none" xmlns="http://www.w3.org/2000/svg">
<g clip-path="url(#clip0_705_3)">
<path d="M118.153 57.4167L31.1816 107.63C29.6122 108.536 29.0745 110.543 29.9807 112.112C30.434 112.897 31.1624 113.424 31.9734 113.641C32.7843 113.858 33.6786 113.767 34.4636 113.313L121.435 63.0999C124.861 61.1217 127.311 57.9284 128.335 54.1077L134.071 32.7021C134.568 30.8474 133.905 28.8933 132.381 27.7246C130.858 26.5564 128.799 26.42 127.135 27.3807L39.059 78.2316C37.4895 79.1377 36.9518 81.1446 37.858 82.7136C38.7645 84.2832 40.771 84.8208 42.3404 83.9147L126.587 35.2747L121.996 52.4091C121.426 54.5368 120.061 56.315 118.153 57.4167Z" fill="#EA1826"/>
<path d="M163.003 189.971C162.44 192.071 163.191 194.284 164.916 195.607C165.489 196.047 166.128 196.357 166.795 196.536C168.139 196.896 169.598 196.723 170.856 195.997L228.593 162.663C232.018 160.685 234.469 157.491 235.492 153.67L249.663 100.784C250.226 98.6835 249.475 96.4712 247.75 95.1476C246.024 93.8227 243.694 93.6712 241.81 94.758L212.026 111.954L228.144 51.8003C228.641 49.9455 227.978 47.9914 226.454 46.8226C224.931 45.6536 222.872 45.518 221.209 46.4788L192.349 63.1412L194.026 56.8843C194.523 55.0296 193.859 53.0755 192.336 51.9067C190.813 50.7377 188.753 50.6021 187.09 51.5629L56.2239 127.119C52.7983 129.097 50.3478 132.29 49.3241 136.111L41.534 165.184C41.0369 167.039 41.7001 168.993 43.2239 170.162C43.7295 170.55 44.2938 170.824 44.8833 170.982C46.07 171.3 47.3582 171.147 48.4691 170.506L179.336 94.95C182.762 92.972 185.212 89.7781 186.235 85.9574L189.947 72.1061L220.661 54.3733L203.989 116.595L184.073 128.093C180.648 130.071 178.197 133.264 177.173 137.085L166.583 176.61L78.2293 227.621L97.7452 154.787C98.2142 153.036 97.1758 151.237 95.425 150.768C93.6742 150.299 91.8753 151.338 91.4063 153.088L70.746 230.194C70.249 232.048 70.9121 234.002 72.436 235.171C72.9416 235.559 73.5059 235.833 74.0955 235.991C75.2821 236.309 76.5704 236.157 77.6812 235.515L164.181 185.575L163.003 189.971L163.003 189.971ZM49.0173 162.611L55.663 137.809C56.2331 135.682 57.5977 133.903 59.5054 132.802L186.542 59.457L184.312 67.7816L106.757 112.558C103.331 114.536 100.881 117.729 99.8569 121.55L96.1453 135.402L49.0173 162.611ZM179.897 84.2589C179.326 86.3867 177.962 88.1652 176.054 89.2665L104.183 130.761L106.196 123.249C106.766 121.121 108.131 119.343 110.038 118.241L181.909 76.7465L179.897 84.2589ZM242.571 101.897L229.153 151.972C228.583 154.1 227.219 155.878 225.311 156.979L170.095 188.858L172.218 180.934L192.134 169.436C195.559 167.458 198.01 164.264 199.033 160.444L209.624 120.919L242.571 101.897ZM183.512 138.784C184.082 136.656 185.447 134.878 187.355 133.776L201.587 125.559L192.695 158.745C192.124 160.873 190.76 162.651 188.852 163.753L174.62 171.97L183.512 138.784Z" fill="#EA1826"/>
<path d="M237.007 179.591L199.96 200.981C198.391 201.887 197.853 203.894 198.759 205.463C199.212 206.247 199.941 206.774 200.752 206.992C201.563 207.209 202.457 207.117 203.242 206.664L240.289 185.275C241.858 184.369 242.396 182.362 241.49 180.793C240.583 179.223 238.576 178.685 237.007 179.591Z" fill="#EA1826"/>
<path d="M230.436 204.119L154.216 248.122L157.501 235.861C158.072 233.734 159.436 231.956 161.344 230.854L189.961 214.332C191.53 213.426 192.068 211.419 191.162 209.85C190.255 208.28 188.249 207.743 186.679 208.649L158.062 225.171C154.637 227.149 152.186 230.342 151.163 234.163L146.733 250.694C146.236 252.549 146.899 254.503 148.423 255.672C148.928 256.06 149.492 256.334 150.082 256.492C151.269 256.81 152.557 256.657 153.668 256.016L233.717 209.803C235.287 208.897 235.824 206.89 234.918 205.321C234.011 203.751 232.005 203.213 230.436 204.119Z" fill="#EA1826"/>
<path d="M58.9124 172.12L5.66433 202.862C4.09489 203.768 3.55715 205.775 4.46338 207.344C4.91659 208.129 5.64466 208.656 6.45603 208.873C7.26699 209.09 8.16125 208.999 8.94624 208.545L62.1944 177.803C63.7638 176.897 64.3015 174.89 63.3953 173.321C62.4891 171.752 60.4824 171.213 58.9124 172.12Z" fill="#EA1826"/>
</g>
<defs>
<clipPath id="clip0_705_3">
<rect width="224" height="224" fill="white" transform="translate(58.8037 0.828613) rotate(15)"/>
</clipPath>
</defs>
</svg>
