<svg width="100" height="90" viewBox="0 0 100 90" fill="none" xmlns="http://www.w3.org/2000/svg">
<path d="M98.9549 37.7614C98.9549 37.7614 90.1417 31.0025 90.1417 30.9738C90.1417 30.9738 89.406 30.2576 89.406 28.8106C89.406 25.1058 89.406 13.9914 89.406 13.9914C89.406 12.3231 88.0487 10.9657 86.3803 10.9657H75.5012C73.8328 10.9657 72.4755 12.3231 72.4755 13.9914C72.4755 13.9914 72.4755 15.856 72.4755 16.4775C72.4755 17.1681 72.099 16.8508 72.099 16.8508L52.0422 1.23396C51.5234 0.830097 50.9111 0.616455 50.2718 0.616455C49.2243 0.616455 48.2632 1.20713 47.7636 2.15773L43.0679 11.0891C42.4962 12.1765 42.4941 13.6965 43.0627 14.7849L49.1283 26.4016C49.1283 26.4016 49.5724 27.0012 48.9689 28.0628C47.3789 30.8586 41.3759 38.4481 41.3759 38.4481C40.6442 39.4487 40.429 40.961 40.8526 42.126L42.4636 46.5565C42.4636 46.5565 42.9837 47.973 41.9792 47.1469C40.0235 45.5388 36.6158 42.9632 34.864 41.5241C33.9066 40.7376 34.6488 39.7899 34.6488 39.7899L40.6382 29.3099C41.3393 28.082 41.1817 26.4108 40.2638 25.3357L32.8818 16.6924C32.2996 16.0107 31.4458 15.6195 30.5397 15.6195C29.8577 15.6195 29.1886 15.8481 28.6553 16.2633L1.04503 37.7611C-0.0273909 38.5957 -0.139474 39.6797 0.11337 40.4156C0.365951 41.1515 1.12001 41.9382 2.47895 41.9382H8.56063C8.56063 41.9382 9.18314 41.8779 9.18314 42.5139C9.18314 53.4748 9.18314 86.358 9.18314 86.358C9.18314 88.0263 10.5405 89.3837 12.2088 89.3837H39.2095C40.8778 89.3837 42.2352 88.0263 42.2352 86.358V73.435C42.2352 72.8323 42.2186 71.8577 42.1978 71.2702C42.1968 71.2305 42.1176 67.2505 44.4611 64.8436C45.71 63.5604 47.4229 62.9369 49.6971 62.9369C52.1101 62.9369 54.0126 63.6189 55.3521 64.9638C57.7655 67.3876 57.7774 71.2744 57.7774 71.3052C57.77 71.8912 57.7639 72.8491 57.7639 73.4348V86.3577C57.7639 88.0261 59.1213 89.3834 60.7897 89.3834H87.7903C89.4587 89.3834 90.816 88.0261 90.816 86.3577C90.816 86.3577 90.816 53.705 90.816 42.8206C90.816 41.8669 91.6348 41.9382 91.6348 41.9382H97.5202C98.8791 41.9382 99.6332 41.1518 99.8858 40.4156C100.139 39.6797 100.027 38.5957 98.9549 37.7614ZM76.4223 15.4577C76.4223 14.9315 76.948 14.912 76.948 14.912H84.7749C84.7749 14.912 85.4597 14.8878 85.4597 15.6113C85.4597 18.2261 85.4597 23.2803 85.4597 26.0698C85.4597 27.2319 84.792 26.7331 84.792 26.7331L76.526 20.2973C76.487 20.2465 76.4223 20.1444 76.4223 19.7826C76.4223 19.7826 76.4223 16.6146 76.4223 15.4577ZM89.8957 37.9916C88.2273 37.9916 86.87 39.349 86.87 41.0173V84.4571C86.87 84.4571 86.9992 85.4369 85.9138 85.4369C80.1503 85.4369 68.862 85.4369 62.8592 85.4369C61.7082 85.4369 61.711 84.3584 61.711 84.3584V73.4345C61.711 72.8623 61.7171 71.9264 61.7239 71.3541C61.7268 71.13 61.7508 65.8253 58.1789 62.2089C56.0693 60.073 53.2156 58.99 49.6977 58.99C46.3344 58.99 43.6123 60.0422 41.6074 62.1173C38.101 65.7468 38.2463 71.1694 38.2542 71.3989C38.2731 71.9469 38.2892 72.8791 38.2892 73.4345V84.6873C38.2892 84.6873 38.3578 85.4369 37.141 85.4369C31.1382 85.4369 19.9981 85.4369 14.2837 85.4369C12.9682 85.4369 13.1302 84.3584 13.1302 84.3584V41.0173C13.1302 39.349 11.7729 37.9916 10.1045 37.9916C10.1045 37.9916 8.61825 37.9916 8.12256 37.9916C7.33324 37.9916 7.99864 37.3491 7.99864 37.3491L29.9211 20.2799C29.9211 20.2799 30.3986 19.8815 30.7222 20.2415C31.7518 21.387 34.944 25.1884 36.1488 26.5947C36.7134 27.254 36.0467 27.7226 36.0467 27.7226L19.1269 38.5712C18.3929 39.0417 18.1792 40.0183 18.6499 40.7524C18.9514 41.2225 19.4603 41.4791 19.9805 41.4791C20.272 41.4791 20.5672 41.398 20.8308 41.2291C20.8308 41.2291 30.05 35.4132 33.0641 33.3852C33.753 32.9218 33.6972 33.5007 33.6972 33.5007L30.2813 39.4779C29.5162 40.8176 29.8653 42.6157 31.0764 43.5713L45.1373 54.6672C45.6574 55.0771 46.2007 55.2853 46.7525 55.2853C47.4429 55.2853 48.0896 54.9509 48.4821 54.3907C48.791 53.9495 49.0765 53.1951 48.6805 52.1062L44.5837 40.84C44.5845 40.8055 44.5911 40.7584 44.6003 40.7253L52.8573 29.432C53.6366 28.3656 53.7584 26.7423 53.1472 25.5717C53.1472 25.5717 51.0353 21.4618 50.2957 20.111C49.5614 18.7691 50.7367 19.5416 50.7367 19.5416L79.7064 41.1657C79.9898 41.3772 80.321 41.4793 80.6494 41.4793C81.1306 41.4793 81.6058 41.2602 81.916 40.845C82.4374 40.1464 82.2938 39.1572 81.595 38.6357L47.1566 12.9287C47.1566 12.9287 46.6948 12.6388 46.9937 12.0963C47.7002 10.8149 49.5393 7.20698 50.2765 5.85909C50.6027 5.26237 51.2095 5.58704 51.2095 5.58704L91.6937 37.1092C91.6937 37.1092 92.4915 37.9916 91.3514 37.9916C90.9873 37.9916 89.8957 37.9916 89.8957 37.9916Z" fill="#BFBFBF" fill-opacity="0.25"/>
</svg>
