<svg width="80" height="80" viewBox="0 0 80 80" fill="none" xmlns="http://www.w3.org/2000/svg">
<g clip-path="url(#clip0_504_190)">
<path d="M79.1913 30.8344L45.0044 1.20576C44.3255 0.617484 43.3964 0.48389 42.5792 0.856859C42.138 1.05842 41.787 1.38139 41.5577 1.77748H38.4422C38.2127 1.38155 37.8619 1.05842 37.4206 0.856859C36.6034 0.484202 35.6742 0.617484 34.9955 1.20576L22.7366 11.8303C22.2475 12.2542 22.1945 12.9944 22.6184 13.4834C23.0423 13.9725 23.7825 14.0253 24.2716 13.6015L36.4013 3.08889V6.91092C36.4013 7.14295 36.2988 7.35655 36.1316 7.50139C28.7573 13.8926 9.71344 30.3973 2.34375 36.7844V32.6056L20.1398 17.1825C20.6289 16.7586 20.6819 16.0184 20.258 15.5294C19.8341 15.0403 19.0939 14.9873 18.6048 15.4112L0.808594 30.8345C0.294844 31.28 0 31.9255 0 32.6056V36.7844C0 37.7134 0.525 38.5304 1.37031 38.9164C2.21531 39.3023 3.17656 39.1642 3.87891 38.5556L4.85359 37.7108V77.0069C4.85359 78.2992 5.905 79.3506 7.19734 79.3506H72.8028C74.0952 79.3506 75.1466 78.2992 75.1466 77.0069V37.7108L76.1213 38.5556C76.8256 39.1661 77.7878 39.3011 78.6299 38.9164C79.475 38.5304 80.0002 37.7136 80.0002 36.7844V32.6056C80 31.9255 79.7052 31.28 79.1913 30.8344ZM38.7452 6.63092V4.12123H41.2548V6.63092H38.7452ZM37.6667 9.27248C37.7741 9.17951 37.8741 9.07998 37.9667 8.97483H42.0333C42.1258 9.07998 42.2259 9.17951 42.3333 9.27248L47.6856 13.9112H32.3144L37.6667 9.27248ZM63.7525 30.8986C63.1052 30.8986 62.5806 31.4231 62.5806 32.0705C62.5806 32.7178 63.1052 33.2423 63.7525 33.2423H65.5225V69.7267H43.5986V33.2423H58.2836C58.9309 33.2423 59.4555 32.7178 59.4555 32.0705C59.4555 31.4231 58.9309 30.8986 58.2836 30.8986H12.7138L15.6095 28.3889H64.3903L67.2863 30.8986H63.7525ZM38.7452 69.7267V33.2423H41.2548V69.7267H38.7452ZM18.3139 26.045L24.0098 21.1084H55.9902L61.6861 26.045H18.3139ZM26.7142 18.7648L29.61 16.2551H50.3898L53.2858 18.7648H26.7142ZM10.0094 33.2423H12.1338V56.6451C12.1338 57.2925 12.6583 57.817 13.3056 57.817C13.953 57.817 14.4775 57.2925 14.4775 56.6451V33.2423H36.4013V69.7267H14.4775V62.1139C14.4775 61.4665 13.953 60.942 13.3056 60.942C12.6583 60.942 12.1338 61.4665 12.1338 62.1139V69.7267H7.19719V35.6795L10.0094 33.2423ZM7.19719 72.0704H9.70688V77.007H7.19719V72.0704ZM12.0508 72.0704H67.9492V77.007H12.0508V72.0704ZM70.293 77.007V72.0704H72.8027V77.007H70.293ZM72.8028 69.7267H67.8663V33.2423H69.9906L72.8028 35.6795V69.7267ZM77.6563 36.7844C67.4936 27.9769 53.9919 16.2751 43.8683 7.50139C43.7005 7.35592 43.5986 7.14201 43.5986 6.91092V3.08889L77.6563 32.6056V36.7844Z" fill="#EA1826"/>
</g>
<defs>
<clipPath id="clip0_504_190">
<rect width="80" height="80" fill="white" transform="translate(0 -0.000488281)"/>
</clipPath>
</defs>
</svg>
