<svg width="1920" height="1172" viewBox="0 0 1920 1172" fill="none" xmlns="http://www.w3.org/2000/svg">
<mask id="mask0_588_3986" style="mask-type:alpha" maskUnits="userSpaceOnUse" x="0" y="0" width="1920" height="1206">
<path d="M1920 0H0.490723V1205.99H1920V0Z" fill="#0D0D0D"/>
</mask>
<g mask="url(#mask0_588_3986)">
<g opacity="0.3">
<g opacity="0.3">
<path d="M352.926 -425.504H-52.6426L-391.239 208.219H14.3293L352.926 -425.504Z" stroke="white" stroke-opacity="0.4"/>
<path d="M758.494 -425.504H352.926L14.3293 208.219H419.898L758.494 -425.504Z" stroke="white" stroke-opacity="0.4"/>
<path d="M1164.06 -425.504H758.496L419.899 208.219H825.467L1164.06 -425.504Z" stroke="white" stroke-opacity="0.4"/>
<path d="M1569.63 -425.504H1164.06L825.467 208.219H1231.04L1569.63 -425.504Z" stroke="white" stroke-opacity="0.4"/>
<path d="M1975.2 -425.504H1569.63L1231.04 208.219H1636.61L1975.2 -425.504Z" stroke="white" stroke-opacity="0.4"/>
<path d="M352.926 208.218H-52.6426L-391.239 841.94H14.3293L352.926 208.218Z" stroke="white" stroke-opacity="0.4"/>
<path d="M758.494 208.218H352.926L14.3293 841.94H419.898L758.494 208.218Z" stroke="white" stroke-opacity="0.4"/>
<path d="M1164.06 208.218H758.494L419.898 841.94H825.466L1164.06 208.218Z" stroke="white" stroke-opacity="0.4"/>
<path d="M1569.63 208.218H1164.06L825.467 841.94H1231.04L1569.63 208.218Z" stroke="white" stroke-opacity="0.4"/>
<path d="M1975.2 208.218H1569.63L1231.04 841.94H1636.61L1975.2 208.218Z" stroke="white" stroke-opacity="0.4"/>
<path d="M352.926 841.941H-52.6426L-391.239 1475.66H14.3293L352.926 841.941Z" stroke="white" stroke-opacity="0.4"/>
<path d="M758.494 841.941H352.926L14.3293 1475.66H419.898L758.494 841.941Z" stroke="white" stroke-opacity="0.4"/>
<path d="M1164.06 841.941H758.496L419.899 1475.66H825.467L1164.06 841.941Z" stroke="white" stroke-opacity="0.4"/>
<path d="M1569.63 841.941H1164.06L825.467 1475.66H1231.04L1569.63 841.941Z" stroke="white" stroke-opacity="0.4"/>
<path d="M1975.2 841.941H1569.63L1231.04 1475.66H1636.61L1975.2 841.941Z" stroke="white" stroke-opacity="0.4"/>
</g>
<g opacity="0.3">
<path d="M693.01 -423.421H288.33L-49.5246 208.913H355.155L693.01 -423.421Z" stroke="white" stroke-opacity="0.4"/>
<path d="M1097.69 -423.421H693.01L355.156 208.913H759.836L1097.69 -423.421Z" stroke="white" stroke-opacity="0.4"/>
<path d="M1502.37 -423.421H1097.69L759.836 208.913H1164.52L1502.37 -423.421Z" stroke="white" stroke-opacity="0.4"/>
<path d="M1907.05 -423.421H1502.37L1164.51 208.913H1569.19L1907.05 -423.421Z" stroke="white" stroke-opacity="0.4"/>
<path d="M2311.73 -423.421H1907.05L1569.2 208.913H1973.88L2311.73 -423.421Z" stroke="white" stroke-opacity="0.4"/>
<path d="M693.01 208.913H288.33L-49.5246 841.247H355.155L693.01 208.913Z" stroke="white" stroke-opacity="0.4"/>
<path d="M1097.69 208.913H693.01L355.156 841.247H759.836L1097.69 208.913Z" stroke="white" stroke-opacity="0.4"/>
<path d="M1502.37 208.913H1097.69L759.836 841.247H1164.52L1502.37 208.913Z" stroke="white" stroke-opacity="0.4"/>
<path d="M1907.05 208.913H1502.37L1164.51 841.247H1569.19L1907.05 208.913Z" stroke="white" stroke-opacity="0.4"/>
<path d="M2311.73 208.913H1907.05L1569.2 841.247H1973.88L2311.73 208.913Z" stroke="white" stroke-opacity="0.4"/>
<path d="M693.01 841.246H288.33L-49.5246 1473.58H355.155L693.01 841.246Z" stroke="white" stroke-opacity="0.4"/>
<path d="M1097.69 841.246H693.01L355.156 1473.58H759.836L1097.69 841.246Z" stroke="white" stroke-opacity="0.4"/>
<path d="M1502.37 841.246H1097.69L759.836 1473.58H1164.52L1502.37 841.246Z" stroke="white" stroke-opacity="0.4"/>
<path d="M1907.05 841.246H1502.37L1164.51 1473.58H1569.19L1907.05 841.246Z" stroke="white" stroke-opacity="0.4"/>
<path d="M2311.73 841.246H1907.05L1569.2 1473.58H1973.88L2311.73 841.246Z" stroke="white" stroke-opacity="0.4"/>
</g>
</g>
</g>
</svg>
