<svg width="45" height="45" viewBox="0 0 45 45" fill="none" xmlns="http://www.w3.org/2000/svg">
<g id="phone 1" clip-path="url(#clip0_795_3987)">
<g id="Group">
<path id="Vector" d="M35.6836 2.72461H30.4102H25.1367C20.0486 2.72461 15.8203 6.86505 15.8203 11.9531C15.8203 16.5945 19.3522 20.4465 23.8184 21.0877V25.1367C23.8184 25.6697 24.1389 26.1512 24.6321 26.3546C25.1183 26.5576 25.6888 26.4488 26.0689 26.0688L30.4102 21.7275L30.956 21.1816H35.6836C40.7717 21.1816 45 17.0412 45 11.9531C45 6.86505 40.7717 2.72461 35.6836 2.72461Z" fill="#FED843"/>
<path id="Vector_2" d="M35.6836 21.1816C40.7717 21.1816 45 17.0412 45 11.9531C45 6.86505 40.7717 2.72461 35.6836 2.72461H30.4102V21.7275L30.956 21.1816H35.6836Z" fill="#FABE2C"/>
<path id="Vector_3" d="M33.5742 33.0469V38.3203C33.5742 40.6143 31.7013 42.2754 29.6376 42.2754C22.043 42.2754 14.6338 38.6851 9.12305 33.1963C3.6123 27.7075 0 20.3203 0 12.7257C0 10.5442 1.77451 8.78906 3.95508 8.78906H9.22852C9.79629 8.78906 10.2999 9.15205 10.4783 9.68994L13.115 17.5816C13.2442 17.9684 13.1871 18.392 12.9621 18.7304L10.7262 22.0852C11.5734 23.8623 13.0729 25.8047 14.8043 27.515C16.5366 29.2245 18.501 30.702 20.2781 31.5492L23.6329 29.3133C23.973 29.0892 24.3949 29.0303 24.7816 29.1604L32.6918 31.7971C33.2297 31.9755 33.5742 32.4791 33.5742 33.0469Z" fill="#FF641A"/>
<path id="Vector_4" d="M33.5742 33.047V38.3204C33.5742 40.6144 31.7013 42.2755 29.6376 42.2755C22.043 42.2755 14.6338 38.6852 9.12305 33.1964L14.8043 27.5151C16.5366 29.2246 18.501 30.7021 20.2781 31.5493L23.6329 29.3134C23.973 29.0893 24.3949 29.0304 24.7816 29.1604L32.6918 31.7972C33.2297 31.9756 33.5742 32.4792 33.5742 33.047Z" fill="#F03800"/>
<path id="Vector_5" d="M25.1367 13.2715C25.8648 13.2715 26.4551 12.6812 26.4551 11.9531C26.4551 11.225 25.8648 10.6348 25.1367 10.6348C24.4086 10.6348 23.8184 11.225 23.8184 11.9531C23.8184 12.6812 24.4086 13.2715 25.1367 13.2715Z" fill="#613D5C"/>
<path id="Vector_6" d="M30.4102 13.2715C31.1383 13.2715 31.7285 12.6812 31.7285 11.9531C31.7285 11.225 31.1383 10.6348 30.4102 10.6348C29.682 10.6348 29.0918 11.225 29.0918 11.9531C29.0918 12.6812 29.682 13.2715 30.4102 13.2715Z" fill="#613D5C"/>
<g id="Group_2">
<path id="Vector_7" d="M31.7285 11.9531C31.7285 11.225 31.1382 10.6348 30.4102 10.6348V13.2715C31.1382 13.2715 31.7285 12.6812 31.7285 11.9531Z" fill="#4B2746"/>
<path id="Vector_8" d="M35.6836 13.2715C36.4117 13.2715 37.002 12.6812 37.002 11.9531C37.002 11.225 36.4117 10.6348 35.6836 10.6348C34.9555 10.6348 34.3652 11.225 34.3652 11.9531C34.3652 12.6812 34.9555 13.2715 35.6836 13.2715Z" fill="#4B2746"/>
</g>
</g>
</g>
<defs>
<clipPath id="clip0_795_3987">
<rect width="45" height="45" fill="white"/>
</clipPath>
</defs>
</svg>
