<svg width="10" height="10" viewBox="0 0 10 10" fill="none" xmlns="http://www.w3.org/2000/svg">
<path fill-rule="evenodd" clip-rule="evenodd" d="M9.15625 4.58989L1.31721 0.063916C1.24551 0.0221824 1.16409 5.45309e-05 1.08114 -0.000244141H1.07977C0.996765 8.55185e-05 0.915307 0.0222248 0.843557 0.0639551C0.7713 0.105163 0.71131 0.164857 0.669744 0.236908C0.628178 0.30896 0.606534 0.390775 0.607034 0.473955V9.52583C0.606705 9.60906 0.628375 9.69091 0.669849 9.76307C0.711322 9.83524 0.771127 9.89516 0.843208 9.93678C0.91529 9.9784 0.997088 10.0002 1.08032 10.0001C1.16356 9.99992 1.24527 9.97777 1.31719 9.93587L9.15625 5.40987C9.22822 5.36833 9.28799 5.30856 9.32955 5.2366C9.3711 5.16463 9.39298 5.08299 9.39298 4.99988C9.39298 4.91678 9.3711 4.83514 9.32955 4.76317C9.28799 4.6912 9.22822 4.63144 9.15625 4.58989Z" fill="white"/>
</svg>
