<svg width="47" height="33" viewBox="0 0 47 33" fill="none" xmlns="http://www.w3.org/2000/svg">
<path d="M4.94582 29.5625C2.40415 27.0416 0.87915 24.2916 0.87915 19.7083C0.87915 11.6875 7.23332 4.58329 16.1292 0.916626L18.4167 3.89579C10.0292 8.02079 8.24999 13.2916 7.74165 16.7291C9.01249 16.0416 10.7917 15.8125 12.5708 16.0416C17.1458 16.5 20.7042 19.7083 20.7042 24.0625C20.7042 26.125 19.6875 28.1875 18.1625 29.7916C16.3833 31.3958 14.35 32.0833 11.8083 32.0833C9.01249 32.0833 6.47082 30.9375 4.94582 29.5625ZM30.3625 29.5625C27.8208 27.0416 26.2958 24.2916 26.2958 19.7083C26.2958 11.6875 32.65 4.58329 41.5458 0.916626L43.8333 3.89579C35.4458 8.02079 33.6667 13.2916 33.1583 16.7291C34.4292 16.0416 36.2083 15.8125 37.9875 16.0416C42.5625 16.5 46.1208 19.7083 46.1208 24.0625C46.1208 26.125 45.1042 28.1875 43.5792 29.7916C42.0542 31.3958 39.7667 32.0833 37.225 32.0833C34.4292 32.0833 31.8875 30.9375 30.3625 29.5625Z" fill="#EA1826"/>
</svg>
