<svg width="45" height="45" viewBox="0 0 45 45" fill="none" xmlns="http://www.w3.org/2000/svg">
<g clip-path="url(#clip0_353_19)">
<path d="M33.9357 24.3414C33.5405 27.338 30.8916 30.0503 26.0464 32.4138L25.1739 32.8395L28.751 39.4436L29.5585 39.0343C39.8047 33.8404 45 26.5002 45 17.2174C45 14.0145 43.9833 11.2482 41.9779 8.99522C39.9444 6.71085 37.4766 5.55254 34.6425 5.55254C32.0961 5.55254 29.9368 6.45931 28.2247 8.24797C26.5237 10.0251 25.6613 12.2325 25.6613 14.8089C25.6613 17.2435 26.5324 19.4132 28.2506 21.2576C29.766 22.8846 31.6755 23.9195 33.9357 24.3414ZM29.569 9.53478C30.9354 8.10735 32.5949 7.41353 34.6425 7.41354C36.9545 7.41354 38.8992 8.33568 40.5876 10.2326C42.3045 12.1613 43.1391 14.446 43.1391 17.2175C43.1391 21.472 41.9411 25.3131 39.5785 28.6338C37.3242 31.8022 33.943 34.5995 29.5203 36.9571L27.7283 33.6487C33.1177 30.8244 35.8484 27.4294 35.8484 23.548L35.8484 22.7169L35.0227 22.6234C32.7983 22.3716 31.0288 21.51 29.6123 19.9893C28.2059 18.4795 27.5222 16.7849 27.5222 14.809C27.5222 12.6989 28.1918 10.9738 29.569 9.53478Z" fill="white"/>
<path d="M8.68301 24.3391C8.29251 27.3382 5.66546 30.0519 0.85907 32.4157L-5.855e-05 32.8382L3.48814 39.447L4.30368 39.0355C14.5967 33.8419 19.8157 26.5013 19.8157 17.2178C19.8157 14.0129 18.7859 11.2451 16.7552 8.99151C14.6992 6.70996 12.2212 5.55305 9.38947 5.55305C6.83986 5.55305 4.69049 6.46158 3.00114 8.25349C1.3263 10.0299 0.477013 12.2356 0.477013 14.8094C0.477013 17.2441 1.34818 19.4138 3.06618 21.2581C4.57852 22.8816 6.465 23.9156 8.68301 24.3391ZM4.35501 9.5301C5.69772 8.1061 7.34435 7.41387 9.38947 7.41387C11.7037 7.41387 13.6609 8.33734 15.3728 10.2372C17.1103 12.1653 17.9549 14.4486 17.9549 17.2178C17.9549 21.4716 16.7514 25.3121 14.3783 28.6325C12.114 31.8002 8.71825 34.597 4.2767 36.9544L2.5333 33.6511C7.88391 30.8258 10.5951 27.4301 10.5951 23.5483L10.5951 22.7191L9.77145 22.624C7.59281 22.3725 5.84502 21.5108 4.42778 19.9896C3.02145 18.4799 2.33792 16.7855 2.33792 14.8093C2.33783 12.6966 2.99772 10.9697 4.35501 9.5301Z" fill="white"/>
</g>
<defs>
<clipPath id="clip0_353_19">
<rect width="45" height="45" fill="white" transform="translate(45 45) rotate(-180)"/>
</clipPath>
</defs>
</svg>
