<svg width="78" height="80" viewBox="0 0 78 80" fill="none" xmlns="http://www.w3.org/2000/svg">
<path d="M75.7726 0.000732422H2.22836C1.34836 0.000732422 0.634766 0.714326 0.634766 1.59433V66.1496C0.634766 73.7871 6.84836 80.0006 14.4857 80.0006C19.7977 80.0006 24.4202 76.994 26.743 72.5937C29.0659 76.9942 33.6884 80.0007 39.0004 80.0007C44.3124 80.0007 48.9349 76.9942 51.2577 72.5939C53.5807 76.9942 58.203 80.0007 63.5151 80.0007C71.1526 80.0007 77.366 73.7871 77.366 66.1498V1.59433C77.3662 0.714326 76.6526 0.000732422 75.7726 0.000732422ZM25.1495 66.1498C25.1495 72.0298 20.3657 76.8135 14.4857 76.8135C8.6057 76.8135 3.82195 72.0298 3.82195 66.1498V53.5515C6.36461 56.617 10.2009 58.5731 14.4857 58.5731C18.7705 58.5731 22.6068 56.6173 25.1495 53.5515V66.1498ZM25.1495 44.6312V44.7218C25.1495 50.6018 20.3657 55.3856 14.4857 55.3856C8.6057 55.3856 3.82195 50.6018 3.82195 44.7218V44.6312V31.9423C6.36461 35.0079 10.2009 36.9639 14.4857 36.9639C18.7705 36.9639 22.6068 35.0081 25.1495 31.9423V44.6312ZM25.1495 23.1128C25.1495 28.9928 20.3657 33.7765 14.4857 33.7765C8.6057 33.7765 3.82195 28.9928 3.82195 23.1128V3.18792H25.1495V23.1128ZM49.6641 66.1498C49.6641 72.0298 44.8804 76.8135 39.0004 76.8135C33.1204 76.8135 28.3366 72.0298 28.3366 66.1498V53.5515C30.8793 56.617 34.7155 58.5731 39.0004 58.5731C43.2852 58.5731 47.1215 56.6173 49.6641 53.5515V66.1498ZM49.6641 44.6314V44.722C49.6641 50.602 44.8804 55.3857 39.0004 55.3857C33.1204 55.3857 28.3366 50.602 28.3366 44.722V44.6314V31.9425C30.8793 35.0079 34.7155 36.964 39.0004 36.964C43.2852 36.964 47.1215 35.0082 49.6641 31.9425V44.6314ZM49.6641 23.1128C49.6641 28.9928 44.8804 33.7765 39.0004 33.7765C33.1204 33.7765 28.3366 28.9928 28.3366 23.1128V3.18792H49.6641V23.1128ZM74.1788 66.1498C74.1788 72.0298 69.3951 76.8135 63.5151 76.8135C57.6351 76.8135 52.8513 72.0298 52.8513 66.1498V53.5515C55.394 56.617 59.2302 58.5731 63.5151 58.5731C67.7999 58.5731 71.6362 56.6173 74.1788 53.5515V66.1498ZM74.1788 44.6314V44.722C74.1788 50.602 69.3951 55.3857 63.5151 55.3857C57.6351 55.3857 52.8513 50.602 52.8513 44.722V44.6314V31.9425C55.394 35.0079 59.2302 36.964 63.5151 36.964C67.7999 36.964 71.6362 35.0082 74.1788 31.9425V44.6314ZM74.1788 23.1128C74.1788 28.9928 69.3951 33.7765 63.5151 33.7765C57.6351 33.7765 52.8513 28.9928 52.8513 23.1128V3.18792H74.1788V23.1128Z" fill="#939393" fill-opacity="0.15"/>
</svg>
