<svg width="89" height="319" viewBox="0 0 89 319" fill="none" xmlns="http://www.w3.org/2000/svg">
<path fill-rule="evenodd" clip-rule="evenodd" d="M61.8201 319L52.9952 305.708C44.1702 292.417 26.5203 265.833 28.2853 239.25C30.0503 212.667 51.2302 186.083 49.4652 159.5C47.7002 132.917 22.9903 106.333 19.4604 79.75C15.9304 53.1667 33.5803 26.5834 42.4052 13.2917L51.2302 3.80278e-05H83V13.2917C83 26.5834 83 53.1667 83 79.75C83 106.333 83 132.917 83 159.5C83 186.083 83 212.667 83 239.25C83 265.833 83 292.417 83 305.708V319H61.8201Z" fill="#EA1826"/>
<path fill-rule="evenodd" clip-rule="evenodd" d="M68.482 319L59.9328 305.708C51.3836 292.417 34.2853 265.833 35.9951 239.25C37.705 212.667 58.223 186.083 56.5131 159.5C54.8033 132.917 30.8656 106.333 27.446 79.75C24.0263 53.1667 41.1246 26.5834 49.6738 13.2917L58.223 3.80278e-05H89V13.2917C89 26.5834 89 53.1667 89 79.75C89 106.333 89 132.917 89 159.5C89 186.083 89 212.667 89 239.25C89 265.833 89 292.417 89 305.708V319H68.482Z" fill="white"/>
</svg>
