<svg width="89" height="319" viewBox="0 0 89 319" fill="none" xmlns="http://www.w3.org/2000/svg">
<path fill-rule="evenodd" clip-rule="evenodd" d="M27.1799 0.00012207L36.0048 13.2918C44.8298 26.5835 62.4797 53.1668 60.7147 79.7501C58.9497 106.333 37.7698 132.917 39.5348 159.5C41.2998 186.083 66.0097 212.667 69.5396 239.25C73.0696 265.833 55.4197 292.417 46.5948 305.708L37.7698 319H6V305.708C6 292.417 6 265.833 6 239.25C6 212.667 6 186.083 6 159.5C6 132.917 6 106.333 6 79.7501C6 53.1668 6 26.5835 6 13.2918L6 0.00012207L27.1799 0.00012207Z" fill="#EA1826"/>
<path fill-rule="evenodd" clip-rule="evenodd" d="M20.518 0.00012207L29.0672 13.2918C37.6164 26.5835 54.7147 53.1668 53.0049 79.7501C51.295 106.333 30.777 132.917 32.4869 159.5C34.1967 186.083 58.1344 212.667 61.554 239.25C64.9737 265.833 47.8754 292.417 39.3262 305.708L30.777 319H7.27177e-06L7.27177e-06 305.708C7.27177e-06 292.417 7.27177e-06 265.833 7.27177e-06 239.25C7.27177e-06 212.667 7.27177e-06 186.083 7.27177e-06 159.5C7.27177e-06 132.917 7.27177e-06 106.333 7.27177e-06 79.7501C7.27177e-06 53.1668 7.27177e-06 26.5835 7.27177e-06 13.2918V0.00012207L20.518 0.00012207Z" fill="white"/>
</svg>
