<?xml version="1.0" standalone="no"?>
<!DOCTYPE svg PUBLIC "-//W3C//DTD SVG 20010904//EN"
 "http://www.w3.org/TR/2001/REC-SVG-20010904/DTD/svg10.dtd">
<svg version="1.0" xmlns="http://www.w3.org/2000/svg"
 width="900.000000pt" height="402.000000pt" viewBox="0 0 900.000000 402.000000"
 preserveAspectRatio="xMidYMid meet">
<metadata>
Created by potrace 1.10, written by Peter Selinger 2001-2011
</metadata>
<g transform="translate(0.000000,402.000000) scale(0.100000,-0.100000)"
fill="#ff0000" stroke="none">
<path d="M5556 3195 c-8 -8 -24 -15 -35 -15 -11 0 -26 -7 -35 -15 -8 -8 -19
-15 -25 -15 -5 0 -14 -6 -18 -13 -4 -8 -24 -24 -43 -38 -42 -29 -190 -175
-190 -187 0 -5 -10 -20 -22 -34 -48 -52 -78 -92 -78 -104 0 -6 -7 -14 -15 -18
-8 -3 -15 -14 -15 -24 0 -11 -7 -25 -15 -32 -8 -7 -15 -18 -15 -25 0 -7 -7
-18 -15 -25 -8 -7 -15 -20 -15 -30 0 -10 -7 -23 -15 -30 -8 -7 -15 -23 -15
-35 0 -12 -7 -28 -15 -35 -8 -7 -15 -28 -15 -47 0 -19 -7 -41 -16 -50 -22 -22
-15 -68 11 -68 15 0 21 8 23 32 2 17 10 37 18 43 8 7 14 27 14 45 0 18 7 38
15 45 8 7 15 23 15 35 0 12 7 28 15 35 8 7 15 20 15 30 0 10 7 23 15 30 8 7
15 19 15 26 0 8 4 14 9 14 5 0 14 12 20 28 11 27 28 56 46 78 6 7 28 34 50 61
91 111 267 273 297 273 10 0 22 8 27 18 17 32 65 26 100 -13 17 -19 31 -41 31
-49 0 -7 7 -19 15 -26 8 -7 15 -27 15 -44 0 -17 6 -40 14 -51 7 -11 16 -53 19
-94 3 -41 11 -79 17 -85 5 -5 10 -39 10 -75 0 -37 5 -84 11 -106 16 -57 22
-121 15 -150 -5 -19 -13 -25 -35 -25 -16 0 -36 -7 -45 -15 -8 -8 -23 -15 -34
-15 -11 0 -25 -7 -32 -15 -7 -8 -21 -15 -32 -15 -10 0 -21 -7 -24 -15 -4 -8
-13 -15 -21 -15 -8 0 -32 -13 -53 -30 -21 -16 -42 -30 -47 -30 -5 0 -23 -13
-41 -30 -18 -16 -36 -30 -39 -30 -8 0 -85 -61 -113 -89 -14 -14 -44 -38 -66
-53 -23 -15 -54 -38 -69 -52 -17 -15 -40 -26 -56 -26 -34 0 -40 -28 -10 -47
16 -10 26 -9 50 3 17 9 31 20 31 25 0 5 5 9 11 9 13 0 63 40 139 109 25 22 53
43 63 47 9 3 17 10 17 15 0 5 6 9 13 9 6 0 25 14 41 30 16 17 34 30 39 30 5 0
26 14 47 30 21 17 45 30 54 30 9 0 19 7 22 15 4 8 14 15 24 15 10 0 23 7 30
15 7 8 20 15 30 15 10 0 23 6 29 14 7 8 24 17 39 21 15 4 30 11 33 17 4 6 14
-2 23 -20 11 -22 16 -59 16 -127 0 -62 5 -108 15 -132 8 -19 15 -64 15 -100 0
-35 7 -80 15 -100 8 -19 15 -60 15 -90 0 -29 7 -70 15 -90 8 -19 15 -62 15
-95 0 -50 4 -63 25 -84 21 -21 29 -23 41 -13 13 10 13 15 -1 35 -8 13 -15 45
-15 71 0 26 -7 61 -15 77 -8 15 -15 54 -15 85 0 32 -6 80 -14 107 -8 27 -16
84 -19 127 -3 43 -10 84 -15 90 -5 7 -12 58 -14 114 -3 56 -9 108 -15 115 -5
7 -10 52 -11 101 -1 48 -9 106 -17 130 -8 23 -15 67 -15 97 0 31 -7 82 -15
113 -8 32 -15 73 -15 91 0 18 -7 41 -15 52 -8 10 -15 33 -15 50 0 16 -7 39
-15 50 -8 10 -15 27 -15 36 0 9 -6 21 -14 25 -7 4 -18 18 -25 31 -6 12 -16 22
-22 22 -6 0 -22 9 -36 20 -31 24 -56 25 -77 5z"/>
<path d="M7337 3144 c-10 -11 -9 -124 3 -163 8 -29 6 -36 -13 -52 -12 -10 -32
-18 -43 -19 -12 0 -27 -7 -34 -15 -7 -8 -21 -15 -32 -15 -10 0 -21 -7 -24 -15
-4 -8 -11 -15 -16 -15 -20 0 -90 -79 -84 -95 9 -25 27 -17 73 30 23 25 49 45
57 45 7 0 19 7 26 15 6 8 22 17 33 21 12 4 27 13 32 21 6 8 18 11 28 7 14 -5
17 -20 17 -83 1 -42 7 -94 15 -116 8 -22 15 -72 15 -111 0 -51 4 -75 15 -84 8
-7 15 -24 15 -39 0 -14 7 -39 15 -55 8 -15 15 -45 15 -65 0 -21 7 -46 15 -57
8 -10 15 -37 15 -59 0 -22 6 -50 14 -61 8 -11 16 -31 18 -44 2 -17 9 -25 23
-25 26 0 32 38 11 70 -9 13 -16 42 -16 63 0 21 -7 47 -15 58 -8 10 -15 37 -15
60 0 22 -7 49 -15 60 -8 10 -15 36 -15 57 0 21 -7 54 -15 74 -8 19 -15 52 -15
72 0 21 -6 60 -14 87 -8 27 -16 90 -18 139 l-3 90 30 2 c17 1 92 2 168 3 111
2 137 5 137 16 0 25 -43 32 -170 27 -69 -3 -138 -6 -155 -7 l-30 -1 -5 90 c-4
70 -8 90 -20 93 -9 1 -19 0 -23 -4z"/>
<path d="M8155 2991 c-3 -6 -28 -25 -56 -43 -49 -31 -139 -146 -139 -177 0 -7
-20 -40 -45 -72 -25 -33 -45 -63 -45 -68 0 -5 -3 -11 -7 -13 -5 -1 -26 -30
-48 -63 -22 -33 -57 -78 -78 -100 -36 -37 -40 -38 -52 -22 -8 12 -12 49 -10
121 2 83 6 108 21 129 30 42 47 35 38 -15 -4 -24 -7 -52 -6 -62 1 -11 -6 -25
-15 -31 -10 -7 -14 -19 -10 -29 8 -19 27 -12 27 10 0 8 8 22 18 32 13 13 17
34 17 92 0 71 -1 75 -24 78 -42 6 -68 -6 -76 -35 -3 -16 -12 -35 -19 -43 -16
-18 -28 -153 -19 -216 4 -28 12 -48 22 -52 9 -3 21 -12 27 -20 7 -10 18 -12
35 -7 32 10 149 131 149 155 0 10 7 20 15 24 8 3 15 12 15 21 0 8 4 15 9 15 5
0 13 10 17 23 7 25 33 57 46 57 4 0 8 -11 8 -25 0 -18 5 -25 20 -25 24 0 26
18 4 48 -14 20 -14 24 0 44 9 12 16 33 16 45 0 28 148 183 174 183 10 0 26 5
37 11 26 13 54 4 73 -26 14 -21 14 -32 4 -77 -7 -29 -18 -59 -25 -66 -7 -7
-13 -20 -13 -28 0 -8 -4 -14 -10 -14 -5 0 -10 -7 -10 -15 0 -8 5 -15 10 -15
17 0 60 31 60 43 0 6 7 18 16 28 11 12 16 40 17 94 2 100 -13 115 -114 115
-37 0 -70 -4 -74 -9z"/>
<path d="M4127 2984 c-12 -13 -8 -51 8 -64 9 -8 15 -29 15 -56 0 -24 6 -49 15
-58 8 -8 15 -32 15 -53 0 -22 7 -48 15 -59 8 -10 15 -41 15 -69 0 -28 7 -59
15 -69 8 -11 15 -40 15 -65 0 -25 7 -68 15 -95 21 -70 21 -428 0 -479 -8 -20
-15 -53 -15 -74 0 -21 -7 -47 -15 -57 -8 -11 -15 -28 -15 -37 0 -15 -15 -51
-42 -99 -4 -8 -12 -24 -17 -36 -17 -39 -77 -94 -103 -94 -32 0 -41 -10 -26
-27 8 -10 7 -17 -8 -29 -21 -16 -60 -34 -75 -34 -18 0 -9 28 11 33 28 7 25 27
-5 27 -14 0 -25 -4 -25 -9 0 -5 -9 -11 -20 -14 -20 -5 -26 -32 -12 -54 4 -6
28 -14 53 -18 35 -5 48 -3 58 9 8 9 19 16 25 16 6 0 22 12 36 27 35 37 74 51
123 44 50 -8 216 -5 225 3 3 4 0 12 -6 18 -8 8 -51 11 -132 10 -66 -1 -120 1
-120 4 0 4 11 22 25 40 14 18 25 37 25 42 0 5 7 15 15 22 8 7 15 20 15 30 0
10 7 23 15 30 8 7 15 24 15 39 0 14 7 35 15 45 8 11 15 33 15 49 0 15 7 50 16
77 13 40 15 89 12 279 -2 167 -6 233 -15 243 -7 6 -13 35 -13 63 0 30 -6 59
-15 71 -8 10 -15 40 -15 65 0 25 -7 54 -15 65 -8 10 -15 38 -15 61 0 23 -7 48
-15 57 -8 8 -15 30 -15 48 0 18 -6 43 -14 54 -8 11 -16 33 -18 49 -3 28 -26
44 -41 29z"/>
<path d="M8452 2804 c-34 -37 -62 -69 -62 -73 -1 -14 -77 -88 -102 -99 -16 -6
-28 -19 -28 -28 0 -9 -13 -33 -30 -54 -16 -21 -30 -42 -30 -48 0 -5 -7 -12
-15 -16 -8 -3 -15 -14 -15 -24 0 -11 -7 -25 -15 -32 -8 -7 -15 -20 -15 -30 0
-10 -7 -23 -16 -30 -9 -8 -14 -25 -12 -44 3 -30 5 -31 52 -33 41 -2 55 2 90
29 52 41 85 79 86 99 0 9 7 19 15 23 8 3 15 14 15 24 0 10 7 34 16 51 13 26
14 38 5 57 -6 13 -15 24 -21 24 -5 0 -10 9 -10 21 0 13 35 57 93 115 50 52 92
102 92 111 0 37 -33 21 -93 -43z m-92 -238 c0 -14 -7 -31 -15 -39 -7 -8 -17
-26 -20 -40 -4 -15 -13 -31 -21 -38 -8 -6 -14 -17 -14 -23 0 -17 -69 -80 -102
-94 -25 -10 -28 -9 -28 7 0 11 17 47 38 81 20 34 45 76 55 93 29 50 59 77 84
77 18 0 23 -6 23 -24z"/>
<path d="M3246 2827 c-10 -8 -25 -31 -34 -53 -20 -51 -26 -211 -12 -300 6 -38
15 -109 19 -159 4 -49 13 -107 21 -128 11 -30 12 -42 2 -57 -7 -11 -12 -29
-12 -39 0 -11 -5 -23 -11 -26 -5 -4 -22 -32 -36 -63 -14 -32 -32 -61 -39 -65
-8 -4 -14 -17 -14 -27 0 -11 -3 -20 -7 -20 -10 0 -43 -57 -36 -63 8 -9 63 24
63 39 0 8 5 14 10 14 6 0 10 8 10 18 0 11 9 27 20 37 12 11 18 26 15 35 -3 11
1 20 10 24 8 3 15 17 15 31 0 14 6 25 13 25 20 0 37 -45 37 -99 0 -26 7 -56
15 -67 16 -21 20 -64 6 -64 -5 0 -12 -17 -16 -37 -4 -20 -13 -46 -21 -57 -8
-11 -14 -27 -14 -36 0 -18 -25 -69 -60 -122 -46 -69 -91 -67 -104 5 -4 20 -11
37 -15 37 -4 0 -11 32 -14 71 -3 39 -13 81 -21 93 -10 16 -13 37 -9 64 4 32 2
43 -10 48 -25 9 -57 -15 -64 -47 -3 -16 -9 -29 -13 -29 -5 0 -12 -14 -15 -32
-4 -17 -14 -38 -21 -46 -8 -7 -14 -22 -14 -33 0 -10 -4 -19 -9 -19 -5 0 -12
-13 -16 -30 -4 -16 -11 -33 -16 -36 -6 -3 -14 -17 -19 -30 -5 -13 -16 -24 -24
-24 -23 0 -30 38 -11 66 9 14 19 48 22 77 4 28 12 58 20 65 7 7 13 24 13 38 0
13 4 24 9 24 5 0 12 14 16 30 4 17 10 30 15 30 5 0 11 9 15 19 3 11 26 36 51
56 l44 37 25 -24 c14 -12 25 -31 25 -40 0 -25 27 -22 33 3 4 15 -5 31 -34 60
-42 42 -59 47 -83 24 -8 -8 -18 -15 -23 -15 -13 0 -83 -74 -83 -87 0 -6 -7
-16 -15 -23 -8 -7 -15 -19 -15 -27 0 -8 -7 -21 -15 -29 -8 -9 -15 -27 -15 -40
0 -14 -7 -32 -15 -40 -10 -10 -15 -35 -15 -69 0 -30 -4 -57 -10 -60 -18 -11
-12 -100 9 -119 19 -17 71 -14 71 4 0 5 6 15 13 22 7 7 18 24 25 38 6 14 16
32 21 40 5 8 17 33 26 55 54 128 55 128 79 94 10 -15 13 -36 9 -75 -4 -40 -2
-60 11 -78 9 -14 16 -35 16 -46 0 -12 11 -36 25 -53 21 -28 31 -33 73 -35 41
-2 52 2 71 24 12 14 26 35 31 47 6 12 14 29 19 37 29 51 41 81 41 102 0 23 27
58 43 58 4 0 7 -22 7 -49 0 -28 5 -53 10 -56 6 -3 10 -21 10 -39 0 -18 7 -41
15 -52 8 -10 15 -31 15 -45 0 -14 7 -34 15 -45 8 -10 15 -29 15 -40 0 -12 7
-27 15 -34 8 -7 15 -25 15 -40 0 -15 7 -33 15 -40 8 -7 15 -23 15 -35 0 -12 7
-28 15 -35 8 -7 15 -20 15 -30 0 -10 7 -23 15 -30 8 -7 15 -20 15 -30 0 -10 6
-23 14 -30 8 -6 16 -21 18 -33 4 -31 58 -38 58 -8 0 12 -9 29 -20 38 -11 10
-20 25 -20 34 0 9 -7 22 -15 29 -8 7 -15 21 -15 31 0 9 -7 24 -15 33 -8 8 -15
24 -15 35 0 11 -7 26 -15 35 -8 8 -15 26 -15 39 0 14 -7 30 -15 37 -8 7 -15
23 -15 36 0 12 -7 29 -15 38 -8 8 -15 28 -15 45 0 16 -7 36 -15 45 -8 8 -15
28 -15 43 0 16 -7 38 -15 49 -8 10 -15 33 -15 49 0 17 -6 39 -14 50 -7 11 -16
44 -19 74 -4 30 -11 59 -17 65 -5 5 -10 33 -10 61 0 29 -6 60 -15 72 -19 28
-24 188 -7 205 16 16 16 61 0 56 -7 -3 -14 -14 -16 -26 -8 -53 -20 -14 -26 85
-4 60 -11 112 -16 117 -6 6 -10 66 -10 135 0 97 4 133 18 162 16 37 32 51 32
29 0 -5 6 -10 14 -10 9 0 13 -13 13 -40 0 -23 7 -48 17 -58 12 -15 16 -40 16
-115 0 -87 9 -123 25 -98 3 6 6 51 6 102 1 76 -2 94 -15 101 -13 7 -15 18 -11
42 5 24 2 38 -11 51 -10 10 -19 24 -20 32 -3 17 -38 53 -52 53 -4 0 -16 -6
-26 -13z"/>
<path d="M2486 2655 c-8 -8 -19 -15 -25 -15 -5 0 -13 -9 -16 -20 -3 -11 -10
-20 -15 -20 -5 0 -12 -10 -16 -22 -3 -12 -13 -28 -20 -36 -8 -7 -14 -24 -14
-36 0 -13 -7 -29 -15 -36 -8 -7 -15 -29 -15 -50 0 -21 -7 -51 -15 -66 -12 -23
-15 -75 -15 -263 l0 -234 -25 -23 c-14 -13 -25 -28 -25 -34 0 -16 21 -12 35 7
12 16 15 13 29 -21 18 -44 20 -72 6 -81 -5 -3 -10 -22 -10 -41 0 -21 -8 -42
-20 -54 -11 -11 -20 -32 -20 -47 0 -16 -7 -37 -15 -47 -8 -11 -15 -26 -15 -34
0 -8 -8 -24 -18 -37 -14 -18 -21 -20 -33 -11 -22 16 -41 98 -48 206 -5 86 -8
95 -26 95 -18 0 -20 -8 -25 -90 -3 -49 -9 -96 -13 -103 -5 -7 -6 -25 -2 -40
l7 -27 16 30 17 30 3 -44 c2 -31 12 -56 34 -83 27 -35 68 -52 68 -28 0 6 7 10
15 10 8 0 17 11 21 25 3 13 12 29 20 36 8 6 14 19 14 29 0 9 7 31 16 49 10 20
13 42 9 61 -4 18 -2 30 3 30 6 0 17 3 25 6 12 4 17 -5 22 -40 4 -26 11 -49 16
-52 5 -3 9 -18 9 -33 0 -16 7 -34 15 -41 8 -7 15 -22 15 -34 0 -12 7 -31 15
-42 8 -10 15 -28 15 -39 0 -30 28 -65 51 -65 21 0 25 20 8 37 -9 9 -5 18 15
38 30 30 33 47 11 65 -8 7 -15 24 -15 37 0 32 -24 25 -28 -8 -6 -52 -13 -55
-33 -15 -10 22 -19 49 -19 61 0 12 -7 30 -15 41 -8 10 -15 32 -15 47 0 16 -6
38 -12 50 -7 12 -19 54 -26 92 -7 39 -15 83 -19 98 -3 16 0 39 8 53 11 21 11
27 -1 34 -22 14 -17 414 5 456 8 16 15 42 15 57 0 16 7 35 15 43 8 9 15 24 15
35 0 11 6 27 13 34 6 8 23 30 37 49 18 25 35 37 61 41 32 6 40 2 76 -34 l40
-40 -2 -96 c-2 -65 -8 -108 -19 -131 -9 -18 -24 -51 -34 -71 -9 -21 -23 -44
-29 -51 -7 -7 -13 -20 -13 -28 0 -8 -4 -14 -9 -14 -5 0 -18 -17 -29 -38 -11
-21 -34 -54 -51 -72 -17 -19 -31 -39 -31 -44 0 -5 -11 -24 -25 -42 -27 -35
-32 -54 -15 -54 11 0 60 48 60 59 0 3 20 28 45 56 25 27 45 53 45 58 0 8 11
23 43 58 9 10 17 25 17 33 0 7 7 19 15 26 8 7 15 19 15 27 0 8 7 21 15 29 8 9
15 24 15 35 0 11 7 27 15 35 11 12 15 40 15 119 l0 103 -40 45 c-63 70 -139
97 -174 62z"/>
<path d="M8077 2631 c-77 -10 -60 -26 32 -29 88 -3 121 2 105 17 -13 13 -82
19 -137 12z"/>
<path d="M6800 2616 c0 -8 5 -18 10 -21 17 -10 11 -41 -12 -66 -13 -14 -41
-52 -63 -84 -22 -33 -44 -64 -48 -70 -4 -5 -25 -34 -46 -63 -51 -69 -90 -100
-102 -81 -16 26 -9 56 21 85 16 16 30 37 30 47 0 9 8 25 19 36 14 14 18 32 17
80 -1 56 -4 64 -27 78 -24 14 -28 14 -52 -2 -15 -9 -27 -25 -27 -34 0 -9 -7
-25 -15 -35 -8 -11 -15 -35 -15 -53 0 -18 -4 -33 -10 -33 -5 0 -15 -18 -21
-40 -11 -34 -10 -43 5 -59 9 -10 19 -35 23 -55 4 -27 13 -40 36 -51 21 -10 34
-12 41 -5 5 5 18 10 28 10 25 0 128 121 128 150 0 6 4 10 10 10 5 0 12 11 16
25 3 14 10 25 14 25 4 0 13 12 18 28 6 15 17 36 25 46 13 18 15 16 30 -35 9
-30 18 -87 20 -127 3 -40 10 -79 16 -85 6 -6 11 -31 11 -57 0 -25 7 -58 15
-74 8 -15 15 -47 15 -70 0 -23 5 -47 12 -54 14 -14 44 -16 53 -2 8 13 8 160 0
168 -3 4 -14 -4 -24 -17 -18 -24 -18 -23 -23 44 -3 37 -11 72 -17 78 -6 6 -11
38 -11 72 0 34 -7 72 -15 89 -9 17 -15 56 -15 95 0 36 -6 77 -13 91 -14 28
-57 41 -57 16z m-210 -171 c0 -38 -4 -54 -15 -59 -8 -3 -15 -16 -15 -28 0 -15
-9 -27 -26 -35 -25 -12 -26 -11 -21 15 33 160 77 223 77 107z"/>
<path d="M6293 2613 c-25 -3 -48 -11 -55 -22 -9 -12 -27 -17 -57 -17 -26 0
-46 -4 -49 -12 -2 -6 -17 -12 -33 -12 -16 0 -37 -8 -47 -18 -13 -13 -29 -18
-49 -15 -31 5 -60 -17 -48 -37 9 -15 61 -12 79 5 8 8 27 15 42 15 15 0 36 8
46 17 12 11 32 16 53 14 24 -2 39 3 51 17 13 15 25 19 49 15 40 -6 75 11 75
37 0 11 -3 19 -7 18 -5 -1 -27 -3 -50 -5z"/>
<path d="M7056 2548 c-20 -25 -26 -40 -22 -61 4 -20 0 -33 -15 -48 -17 -17
-20 -30 -16 -65 3 -28 0 -47 -8 -54 -29 -24 -28 -140 1 -140 16 0 29 60 20 95
-5 18 0 34 15 54 17 24 21 38 16 72 -4 32 -2 46 10 54 9 7 16 26 16 44 0 35
12 41 22 11 3 -11 11 -20 16 -20 5 0 9 -10 9 -23 0 -12 6 -31 14 -42 7 -11 16
-32 20 -47 3 -16 11 -28 16 -28 6 0 10 -8 10 -19 0 -10 16 -37 37 -60 48 -56
85 -54 125 4 30 43 37 95 14 95 -15 0 -29 -27 -21 -39 2 -5 -8 -20 -24 -35
l-28 -26 -25 23 c-14 13 -28 35 -32 50 -3 15 -11 27 -16 27 -6 0 -10 8 -10 18
0 10 -7 27 -15 38 -8 10 -15 29 -15 41 0 12 -7 28 -15 37 -8 8 -15 21 -15 28
0 20 -13 35 -36 42 -16 5 -27 -2 -48 -26z"/>
<path d="M5880 2464 c0 -11 8 -14 32 -12 46 4 49 28 4 28 -26 0 -36 -4 -36
-16z"/>
<path d="M7377 2473 c-11 -10 -8 -51 3 -58 6 -4 10 8 10 29 0 37 -2 41 -13 29z"/>
<path d="M6107 2454 c-4 -4 -7 -72 -7 -151 0 -132 2 -149 25 -199 14 -30 29
-54 34 -54 19 0 41 13 41 24 0 6 9 28 20 49 11 20 20 48 20 60 0 13 7 38 16
56 16 33 10 100 -10 104 -14 3 -26 -53 -19 -82 4 -16 1 -28 -10 -36 -9 -7 -20
-30 -25 -51 -5 -24 -14 -40 -25 -42 -15 -3 -17 13 -19 160 -3 138 -5 163 -18
166 -9 1 -19 0 -23 -4z"/>
<path d="M6254 2445 c-8 -20 5 -85 16 -85 6 0 10 -6 10 -12 0 -7 14 -34 30
-60 37 -59 69 -70 105 -37 13 13 25 30 25 37 0 17 -27 15 -34 -3 -7 -20 -46
-20 -46 0 0 9 -7 18 -15 21 -10 4 -15 21 -15 54 0 69 -58 134 -76 85z"/>
<path d="M3324 2426 c-9 -23 0 -109 12 -113 15 -5 23 39 17 88 -6 39 -19 51
-29 25z"/>
<path d="M998 2287 c-35 -30 -118 -153 -118 -176 0 -10 -7 -21 -15 -25 -9 -3
-15 -18 -15 -34 0 -16 -7 -35 -15 -42 -8 -7 -15 -27 -15 -44 0 -17 -7 -40 -15
-50 -8 -11 -15 -41 -15 -66 0 -25 -6 -52 -12 -58 -20 -20 -45 -388 -30 -431
11 -32 -3 -53 -63 -92 -22 -15 -60 -46 -85 -69 -25 -23 -56 -50 -70 -59 -33
-21 -67 -49 -107 -88 -19 -18 -40 -33 -47 -33 -7 0 -20 -8 -30 -18 -13 -16
-24 -18 -64 -11 -53 8 -73 -2 -56 -29 15 -24 112 -30 120 -8 3 9 14 16 23 16
18 0 42 16 96 65 18 17 43 37 55 45 30 21 72 56 118 98 62 57 83 71 99 65 9
-4 13 -14 9 -27 -4 -16 -9 -354 -7 -413 1 -23 30 -13 44 15 19 36 22 302 6
394 -14 79 -13 82 71 136 84 55 93 60 123 73 15 6 27 15 27 20 0 5 9 9 19 9
11 0 22 4 26 9 3 6 31 22 63 37 31 15 60 31 63 36 3 5 25 12 48 15 38 5 41 4
41 -19 0 -13 7 -33 15 -44 8 -10 15 -28 15 -40 0 -11 7 -29 15 -40 8 -10 15
-29 15 -42 0 -12 7 -25 15 -28 8 -4 15 -16 15 -29 0 -12 7 -28 15 -35 8 -7 15
-21 15 -31 0 -9 7 -24 15 -33 8 -8 15 -21 15 -29 0 -27 95 -147 117 -147 26 0
22 22 -11 66 -20 26 -43 64 -53 85 -9 22 -20 39 -25 39 -4 0 -8 8 -8 18 0 10
-6 26 -14 37 -7 11 -16 32 -20 48 -3 15 -11 27 -16 27 -6 0 -10 10 -10 23 0
13 -7 32 -15 43 -8 10 -15 29 -15 40 0 12 -6 27 -14 33 -12 10 -24 48 -28 91
-1 8 -12 32 -25 52 -12 21 -23 50 -23 65 0 16 -7 41 -15 57 -8 15 -15 42 -15
60 -1 17 -7 42 -15 56 -8 14 -15 45 -15 70 0 25 -7 56 -15 70 -8 14 -14 45
-15 70 0 25 -7 58 -15 74 -8 15 -15 39 -15 51 0 36 -41 94 -67 95 -12 0 -27 2
-35 5 -7 2 -25 -6 -40 -18z m76 -42 c9 -13 16 -37 16 -52 0 -15 7 -41 15 -57
8 -15 15 -46 15 -67 0 -22 7 -56 15 -76 8 -19 15 -52 15 -72 0 -20 7 -49 15
-65 8 -15 15 -42 15 -60 1 -17 7 -42 15 -56 8 -14 14 -37 15 -51 0 -14 7 -34
15 -45 22 -29 18 -44 -15 -55 -16 -6 -30 -15 -30 -20 0 -5 -11 -9 -24 -9 -14
0 -31 -7 -40 -15 -8 -8 -21 -15 -29 -15 -8 0 -20 -7 -27 -15 -7 -8 -20 -15
-30 -15 -10 0 -23 -7 -30 -15 -7 -8 -21 -15 -32 -15 -10 0 -21 -7 -24 -15 -4
-8 -13 -15 -20 -15 -13 0 -71 -36 -84 -51 -3 -4 -15 -9 -27 -13 -13 -4 -23
-12 -23 -17 0 -5 -5 -9 -11 -9 -8 0 -10 14 -5 43 3 23 12 87 21 142 8 55 15
134 15 175 0 50 6 82 15 94 8 11 15 41 15 67 0 29 6 51 15 59 8 7 15 27 15 45
0 18 7 38 15 45 8 7 15 23 15 35 0 12 7 28 15 35 8 7 15 21 15 31 0 11 4 19 9
19 5 0 14 13 19 28 12 35 69 102 87 102 7 0 20 -11 29 -25z"/>
<path d="M2110 2070 c0 -38 27 -52 47 -24 20 27 12 49 -20 52 -24 3 -27 0 -27
-28z"/>
<path d="M4716 1815 c-9 -25 5 -46 28 -43 15 2 22 11 24 31 3 23 0 27 -21 27
-14 0 -27 -7 -31 -15z"/>
<path d="M1510 1687 c0 -7 7 -22 15 -33 9 -11 14 -42 15 -77 0 -32 7 -74 15
-94 8 -19 15 -61 15 -92 0 -31 7 -69 15 -85 8 -15 15 -49 15 -75 0 -25 7 -59
15 -75 8 -15 15 -45 15 -66 0 -50 23 -70 50 -45 17 15 20 31 20 97 0 59 -3 79
-12 76 -7 -3 -15 -13 -16 -24 -9 -45 -22 -35 -22 17 0 29 -7 67 -15 83 -8 16
-15 54 -15 88 0 33 -6 74 -14 91 -8 18 -16 69 -19 115 -3 45 -11 89 -17 97
-15 19 -60 20 -60 2z"/>
<path d="M2603 1653 c-10 -15 -23 -34 -30 -41 -7 -7 -13 -22 -13 -33 0 -10 -4
-19 -9 -19 -13 0 -20 -25 -14 -49 6 -24 33 -29 33 -6 0 21 37 90 60 110 18 16
20 16 26 1 3 -9 13 -16 21 -16 10 0 13 10 11 38 -3 34 -6 37 -35 40 -26 3 -35
-2 -50 -25z"/>
<path d="M1425 1661 c-3 -5 -1 -12 5 -16 12 -7 30 2 30 16 0 12 -27 12 -35 0z"/>
<path d="M1779 1621 c-23 -25 -30 -49 -23 -77 8 -32 25 -26 38 14 l11 32 17
-35 c10 -19 24 -50 31 -68 47 -112 85 -172 119 -191 35 -18 37 -18 62 0 15 11
29 31 32 47 4 15 10 27 15 27 5 0 9 16 9 35 0 24 -5 35 -15 35 -10 0 -15 -10
-15 -30 0 -18 -6 -33 -15 -36 -8 -3 -17 -14 -20 -25 -4 -10 -10 -19 -15 -19
-12 0 -50 40 -61 65 -5 11 -13 27 -18 35 -4 8 -16 33 -25 55 -10 22 -24 53
-32 68 -8 16 -14 34 -14 42 0 13 -42 46 -57 44 -4 0 -15 -9 -24 -18z"/>
<path d="M2630 1567 c0 -14 -7 -30 -15 -37 -8 -7 -15 -20 -15 -30 0 -10 -7
-23 -15 -30 -19 -16 -20 -50 -1 -50 8 0 18 9 21 20 3 11 10 20 15 20 4 0 11
12 15 27 3 15 11 30 16 34 5 3 11 19 12 34 1 21 -3 30 -15 33 -13 3 -18 -3
-18 -21z"/>
<path d="M5215 1544 c-12 -12 -34 -18 -75 -18 -54 -1 -93 -17 -78 -31 3 -4 31
-9 62 -12 41 -4 62 -2 79 10 13 8 34 17 48 19 16 2 24 9 24 23 0 26 -37 32
-60 9z"/>
<path d="M1724 1485 c-3 -14 -3 -37 0 -51 5 -18 2 -32 -11 -46 -20 -22 -23
-122 -5 -140 16 -16 34 36 31 87 -2 26 3 50 14 65 18 26 21 50 11 88 -8 30
-32 28 -40 -3z"/>
<path d="M4472 1492 c-72 -4 -63 -25 13 -33 105 -12 543 -5 557 9 6 6 9 14 6
17 -6 7 -495 13 -576 7z"/>
</g>
</svg>
