<svg width="47" height="315" viewBox="0 0 47 315" fill="none" xmlns="http://www.w3.org/2000/svg">
<path fill-rule="evenodd" clip-rule="evenodd" d="M37.5312 -1.14441e-05C37.5312 -1.14441e-05 16.8938 18.1731 11.5772 31.4243C11.1607 32.4622 10.6025 33.6992 9.95899 35.125C5.20409 45.6606 -4.20286 66.504 4.58957 93.5156C7.88381 103.636 13.4302 111.489 18.9992 119.373C30.3053 135.38 41.704 151.518 34.5365 187.031C32.4256 197.49 28.8145 208.27 25.1879 219.096C13.6422 253.562 1.94074 288.494 38.0003 315H47C10.9405 288.494 22.642 253.562 34.1877 219.096C37.8142 208.27 41.4253 197.49 43.5362 187.031C50.7037 151.518 39.305 135.38 27.9989 119.373C22.43 111.489 16.8835 103.636 13.5893 93.5156C4.79687 66.5039 14.2038 45.6606 18.9587 35.125C19.6022 33.6992 20.1605 32.4622 20.5769 31.4243C25.8935 18.1731 46.5309 -1.14441e-05 46.5309 -1.14441e-05H37.5312Z" fill="#EA1826"/>
</svg>
