<svg width="85" height="85" viewBox="0 0 85 85" fill="none" xmlns="http://www.w3.org/2000/svg">
<path d="M59.1016 71.2207C58.1852 71.2207 57.4414 71.9645 57.4414 72.8809C57.4414 73.7973 58.1852 74.541 59.1016 74.541C60.018 74.541 60.7617 73.7973 60.7617 72.8809C60.7617 71.9645 60.018 71.2207 59.1016 71.2207Z" fill="#EA1826"/>
<path d="M25.8984 71.2207C24.982 71.2207 24.2383 71.9645 24.2383 72.8809C24.2383 73.7973 24.982 74.541 25.8984 74.541C26.8148 74.541 27.5586 73.7973 27.5586 72.8809C27.5586 71.9645 26.8148 71.2207 25.8984 71.2207Z" fill="#EA1826"/>
<path d="M74.3161 62.6228C72.4472 59.7301 69.8791 57.4316 66.8708 55.9473C66.6171 55.7117 66.2909 55.5538 65.9281 55.5135C63.7522 54.5898 61.4585 54.1211 59.1016 54.1211H54.1211V49.7411C57.0033 47.2681 59.0753 43.9926 60.0801 40.3418H60.7617C64.4234 40.3418 67.4023 37.3628 67.4023 33.7012C67.4023 31.966 66.7326 30.3848 65.6389 29.2005C65.7433 29.1118 65.8453 29.0195 65.9432 28.9217C66.8842 27.9808 67.4023 26.7302 67.4023 25.4004C67.4023 23.2151 65.9869 21.3553 64.0251 20.6862C63.4386 13.0521 58.0807 6.5284 50.7038 4.48375C50.2667 2.2007 48.3826 0 45.8203 0H39.1797C36.6174 0 34.7333 2.2007 34.2962 4.48375C26.9199 6.52823 21.5626 13.0508 20.9751 20.6839C20.2609 20.9261 19.6059 21.33 19.0568 21.879C18.1158 22.82 17.5977 24.0706 17.5977 25.4004C17.5977 26.9216 18.284 28.2849 19.3624 29.1992C18.268 30.3835 17.5977 31.9653 17.5977 33.7012C17.5977 37.3628 20.5766 40.3418 24.2383 40.3418H24.9153C25.754 43.3893 27.3443 46.1872 29.5627 48.4983C29.9796 48.9329 30.4215 49.347 30.8789 49.7398V54.1211H25.8984C23.5413 54.1211 21.2477 54.5898 19.0719 55.5133C18.7093 55.5538 18.3829 55.7115 18.1294 55.9471C15.1207 57.4316 12.5528 59.7301 10.6839 62.6226C8.69042 65.7083 7.63672 69.2556 7.63672 72.8809V83.3398C7.63672 84.2566 8.37997 85 9.29688 85H75.7031C76.62 85 77.3633 84.2566 77.3633 83.3398V72.8809C77.3633 69.2556 76.3096 65.7083 74.3161 62.6228ZM17.5977 81.6797H10.957V72.8809C10.957 67.8312 13.5439 62.9911 17.5977 60.1179V81.6797ZM60.7617 37.0215H60.686C60.7355 36.4692 60.7617 35.9148 60.7617 35.3613V30.3809C62.5925 30.3809 64.082 31.8704 64.082 33.7012C64.082 35.532 62.5925 37.0215 60.7617 37.0215ZM34.1992 7.99183V15.4395C34.1992 16.3564 34.9425 17.0996 35.8594 17.0996C36.7763 17.0996 37.5195 16.3564 37.5195 15.4395V5.82101C37.5195 5.81669 37.5195 5.81237 37.5195 5.80806V5.47852C37.5195 4.44988 38.3885 3.32031 39.1797 3.32031H45.8203C46.6115 3.32031 47.4805 4.44988 47.4805 5.47852V5.80806C47.4805 5.81237 47.4805 5.81669 47.4805 5.82101V15.4395C47.4805 16.3564 48.2237 17.0996 49.1406 17.0996C50.0575 17.0996 50.8008 16.3564 50.8008 15.4395V7.99183C56.1614 9.88889 60.0312 14.7399 60.6689 20.4199H24.3311C24.9688 14.7399 28.8386 9.88889 34.1992 7.99183ZM24.2383 37.0215C22.4075 37.0215 20.918 35.532 20.918 33.7012C20.918 31.8704 22.4075 30.3809 24.2383 30.3809V35.3613C24.2383 35.9148 24.2645 36.4693 24.314 37.0215H24.2383ZM24.2383 27.0605H22.5781C21.6627 27.0605 20.918 26.3158 20.918 25.4004C20.918 24.9575 21.0908 24.5406 21.4046 24.227C21.7185 23.9131 22.1352 23.7402 22.5781 23.7402H62.4219C63.3373 23.7402 64.082 24.485 64.082 25.4004C64.082 25.8433 63.9092 26.2602 63.5954 26.5738C63.2817 26.8877 62.8648 27.0605 62.4219 27.0605H60.7617H59.1016H25.8984H24.2383ZM27.8602 38.38C27.8569 38.3619 27.8538 38.344 27.8498 38.3262C27.657 37.3519 27.5586 36.3546 27.5586 35.3613V30.3809H57.4414V35.3613C57.4414 36.3538 57.343 37.3504 57.1502 38.3255C57.1462 38.3435 57.1431 38.3616 57.1398 38.3797C56.3978 42.083 54.3446 45.398 51.3546 47.7165C48.7571 49.7343 45.6953 50.8008 42.5 50.8008C39.3047 50.8008 36.2429 49.7343 33.6429 47.7147C33.0477 47.2542 32.4813 46.7447 31.9587 46.1997C29.8644 44.0179 28.4479 41.315 27.8602 38.38ZM40.8398 81.6797H27.5586V77.8613C27.5586 76.9444 26.8153 76.2012 25.8984 76.2012C24.9815 76.2012 24.2383 76.9444 24.2383 77.8613V81.6797H20.918V58.3502C21.9954 57.9439 23.1054 57.6732 24.2383 57.5397V67.9004C24.2383 68.8173 24.9815 69.5605 25.8984 69.5605C26.8153 69.5605 27.5586 68.8173 27.5586 67.9004V57.4414H31.8277L40.8398 66.9043V81.6797ZM34.1992 55.1172V52.025C36.761 53.4021 39.5826 54.1211 42.5 54.1211C45.4176 54.1211 48.2393 53.4019 50.8008 52.0251V55.1172L42.5 63.833L34.1992 55.1172ZM64.082 81.6797H60.7617V77.8613C60.7617 76.9444 60.0185 76.2012 59.1016 76.2012C58.1847 76.2012 57.4414 76.9444 57.4414 77.8613V81.6797H44.1602V66.9043L53.1723 57.4414H57.4414V67.9004C57.4414 68.8173 58.1847 69.5605 59.1016 69.5605C60.0185 69.5605 60.7617 68.8173 60.7617 67.9004V57.5397C61.8946 57.6732 63.0044 57.9441 64.082 58.3503V81.6797ZM74.043 81.6797H67.4023V60.1177C71.4561 62.991 74.043 67.831 74.043 72.8809V81.6797Z" fill="#EA1826"/>
</svg>
