<svg width="130" height="1428" viewBox="0 0 130 1428" fill="none" xmlns="http://www.w3.org/2000/svg">
<path opacity="0.1" d="M130 -2C129.072 88.7283 102.812 145.913 70.0881 289.91C48.2721 385.908 40.6652 541.605 47.2674 757C-26.2543 467.336 -23.6679 214.336 55.0267 -2" fill="white"/>
<path opacity="0.1" d="M25.2915 98C57.7654 275.413 77.4753 424.148 84.4213 544.204C91.3672 664.259 88.2021 808.525 74.9258 977C73.8775 929.07 55.1545 808.303 18.7568 614.7C-17.6408 421.097 -15.4626 248.863 25.2915 98Z" fill="white"/>
<path opacity="0.2" d="M78.3479 1044C100.671 1128.83 112.392 1277.08 89.8343 1437H10C52.0565 1269.17 74.8391 1138.17 78.3479 1044Z" fill="white"/>
<path d="M63.965 -3.54303C44.802 53.086 32.191 94.208 26.135 119.822C12.505 177.454 7.70999 230.295 4.54099 268.033C1.24099 307.355 2.19899 392.635 6.33699 457.025C7.98999 482.76 11.628 514.727 17.248 552.926C23.404 591.747 27.992 618.372 31.009 632.799C36.676 659.913 48.497 708.501 51.872 723.605C63.683 776.47 75.468 814.839 82.096 852.324C93.831 918.689 95.478 951.676 97.568 1007.18C96.523 1056.7 94.871 1093.39 92.613 1117.24C88.781 1157.7 80.179 1204.62 75.696 1231.4C67.252 1281.85 50.568 1350.35 25.646 1436.89L-6.35201 1437.19L-6.03101 -2.87903L63.965 -3.54303Z" fill="white"/>
</svg>
